<?xml version="1.0" encoding="UTF-8"?>
<svg width="361px" height="714px" viewBox="0 0 361 714" version="1.1" xmlns="http://www.w3.org/2000/svg" xmlns:xlink="http://www.w3.org/1999/xlink">
    <title>Group 16</title>
    <g id="Page-1" stroke="none" stroke-width="1" fill="none" fill-rule="evenodd">
        <g id="Desktop-HD" transform="translate(-120.000000, -4105.000000)" fill="#FBF6EE">
            <g id="Group-12" transform="translate(0.000000, 4026.000000)">
                <g id="Group-16" transform="translate(120.109862, 79.477559)">
                    <path d="M179.5,177 C376.389513,177 536,336.610487 536,533.5 L535.98,536 L406.319,535.999625 C403.897675,412.804578 303.274518,313.681818 179.5,313.681818 C55.7254819,313.681818 -44.8976752,412.804578 -47.3189998,535.999625 L-176.991398,536.002935 C-176.997129,535.1693 -177,534.334985 -177,533.5 C-177,336.610487 -17.3895133,177 179.5,177 Z" id="Combined-Shape-Copy-3" opacity="0.170107887" transform="translate(179.500000, 356.501467) rotate(-90.000000) translate(-179.500000, -356.501467) "></path>
                    <path d="M356.88924,202.522441 C357.891852,202.522441 358.892181,202.532213 359.890139,202.551666 L359.890139,504.493216 C358.892181,504.512669 357.891852,504.522441 356.88924,504.522441 C273.494739,504.522441 205.890138,436.917438 205.890138,353.522441 C205.890138,270.127444 273.494739,202.522441 356.88924,202.522441 Z" id="Combined-Shape" opacity="0.288481213"></path>
                </g>
            </g>
        </g>
    </g>
</svg>