<?xml version="1.0" encoding="UTF-8"?>
<svg width="27px" height="27px" viewBox="0 0 27 27" version="1.1" xmlns="http://www.w3.org/2000/svg" xmlns:xlink="http://www.w3.org/1999/xlink">
    <title>Path</title>
    <g id="Page-1" stroke="none" stroke-width="1" fill="none" fill-rule="evenodd">
        <path d="M13.146447,15.974874 L3.605781,25.515539 C2.822932,26.298388 1.553127,26.301864 0.772078,25.520815 C-0.014416,24.734321 -0.006609,23.471075 0.777354,22.687112 L10.318019,13.146447 L0.777354,3.605781 C-0.005495,2.822932 -0.008971,1.553127 0.772078,0.772078 C1.558572,-0.014416 2.821819,-0.006609 3.605781,0.777354 L13.146447,10.318019 L22.687112,0.777354 C23.469961,-0.005495 24.739767,-0.008971 25.520815,0.772078 C26.307309,1.558572 26.299502,2.821819 25.515539,3.605781 L15.974874,13.146447 L25.515539,22.687112 C26.298388,23.469961 26.301864,24.739767 25.520815,25.520815 C24.734321,26.307309 23.471075,26.299502 22.687112,25.515539 L13.146447,15.974874 L13.146447,15.974874 Z" id="Path" fill="#FFFFFF" fill-rule="nonzero"></path>
    </g>
</svg>