<?xml version="1.0" encoding="UTF-8"?>
<svg width="243px" height="158px" viewBox="0 0 243 158" version="1.1" xmlns="http://www.w3.org/2000/svg" xmlns:xlink="http://www.w3.org/1999/xlink">
    <title>Group 3</title>
    <g id="Page-1" stroke="none" stroke-width="1" fill="none" fill-rule="evenodd">
        <g id="Desktop-HD" transform="translate(-1108.000000, -4937.000000)">
            <g id="Group-13" transform="translate(0.000000, 4897.000000)">
                <g id="Group-3" transform="translate(1229.500000, 119.000000) rotate(14.000000) translate(-1229.500000, -119.000000) translate(1118.000000, 66.000000)">
                    <ellipse id="Oval-Copy-2" stroke="#F9554D" stroke-width="3" cx="111.5" cy="53" rx="110" ry="51.5"></ellipse>
                    <path d="M51.8295455,64.3181818 C53.3219697,64.3181818 54.6306818,64.0284091 55.7556818,63.4488636 C56.8806818,62.8693182 57.7575758,62.0397727 58.3863636,60.9602273 C59.0151515,59.8806818 59.3333333,58.5909091 59.3409091,57.0909091 L59.3409091,57.0909091 L59.3409091,40.7272727 L55.1590909,40.7272727 L55.1590909,57.0909091 C55.1515152,57.9090909 55.0246212,58.5984848 54.7784091,59.1590909 C54.532197,59.719697 54.1742424,60.1420455 53.7045455,60.4261364 C53.2348485,60.7102273 52.6628788,60.8522727 51.9886364,60.8522727 C51.3674242,60.8522727 50.8181818,60.7310606 50.3409091,60.4886364 C49.8636364,60.2462121 49.4905303,59.8977273 49.2215909,59.4431818 C48.9526515,58.9886364 48.8143939,58.4469697 48.8068182,57.8181818 L48.8068182,57.8181818 L44.6136364,57.8181818 C44.6136364,59.25 44.9318182,60.4469697 45.5681818,61.4090909 C46.2045455,62.3712121 47.0662879,63.0965909 48.1534091,63.5852273 C49.2405303,64.0738636 50.4659091,64.3181818 51.8295455,64.3181818 Z M74.0227273,64.3181818 C76.0606061,64.3181818 77.8844697,63.844697 79.4943182,62.8977273 C81.1041667,61.9507576 82.3768939,60.5852273 83.3125,58.8011364 C84.2481061,57.0170455 84.7159091,54.8712121 84.7159091,52.3636364 C84.7159091,49.8560606 84.2481061,47.7102273 83.3125,45.9261364 C82.3768939,44.1420455 81.1041667,42.7765152 79.4943182,41.8295455 C77.8844697,40.8825758 76.0606061,40.4090909 74.0227273,40.4090909 C71.9848485,40.4090909 70.1609848,40.8825758 68.5511364,41.8295455 C66.9412879,42.7765152 65.6685606,44.1420455 64.7329545,45.9261364 C63.7973485,47.7102273 63.3295455,49.8560606 63.3295455,52.3636364 C63.3295455,54.8636364 63.7973485,57.0056818 64.7329545,58.7897727 C65.6685606,60.5738636 66.9412879,61.9412879 68.5511364,62.8920455 C70.1609848,63.842803 71.9848485,64.3181818 74.0227273,64.3181818 Z M74.0227273,60.5340909 C72.7575758,60.5340909 71.6401515,60.2215909 70.6704545,59.5965909 C69.7007576,58.9715909 68.9412879,58.0511364 68.3920455,56.8352273 C67.842803,55.6193182 67.5681818,54.1287879 67.5681818,52.3636364 C67.5681818,50.5984848 67.842803,49.1079545 68.3920455,47.8920455 C68.9412879,46.6761364 69.7007576,45.7556818 70.6704545,45.1306818 C71.6401515,44.5056818 72.7575758,44.1931818 74.0227273,44.1931818 C75.2878788,44.1931818 76.405303,44.5056818 77.375,45.1306818 C78.344697,45.7556818 79.1041667,46.6761364 79.6534091,47.8920455 C80.2026515,49.1079545 80.4772727,50.5984848 80.4772727,52.3636364 C80.4772727,54.1287879 80.2026515,55.6193182 79.6534091,56.8352273 C79.1041667,58.0511364 78.344697,58.9715909 77.375,59.5965909 C76.405303,60.2215909 75.2878788,60.5340909 74.0227273,60.5340909 Z M92.9318182,64 L92.9318182,40.7272727 L88.7159091,40.7272727 L88.7159091,64 L92.9318182,64 Z M101.727273,64 L101.727273,48.1477273 L101.920455,48.1477273 L112.886364,64 L116.636364,64 L116.636364,40.7272727 L112.443182,40.7272727 L112.443182,56.5909091 L112.238636,56.5909091 L101.284091,40.7272727 L97.5113636,40.7272727 L97.5113636,64 L101.727273,64 Z M138.602273,64.3522727 C140.496212,64.3522727 142.151515,63.9981061 143.568182,63.2897727 C144.984848,62.5814394 146.085227,61.594697 146.869318,60.3295455 C147.653409,59.0643939 148.045455,57.5984848 148.045455,55.9318182 L148.045455,55.9318182 L148.045455,40.7272727 L143.829545,40.7272727 L143.829545,55.5795455 C143.829545,56.5492424 143.617424,57.4128788 143.193182,58.1704545 C142.768939,58.9280303 142.164773,59.5208333 141.380682,59.9488636 C140.596591,60.3768939 139.670455,60.5909091 138.602273,60.5909091 C137.534091,60.5909091 136.609848,60.3768939 135.829545,59.9488636 C135.049242,59.5208333 134.445076,58.9280303 134.017045,58.1704545 C133.589015,57.4128788 133.375,56.5492424 133.375,55.5795455 L133.375,55.5795455 L133.375,40.7272727 L129.159091,40.7272727 L129.159091,55.9318182 C129.159091,57.5984848 129.549242,59.0643939 130.329545,60.3295455 C131.109848,61.594697 132.208333,62.5814394 133.625,63.2897727 C135.041667,63.9981061 136.700758,64.3522727 138.602273,64.3522727 Z M160.829545,64.3522727 C162.693182,64.3522727 164.282197,64.0625 165.596591,63.4829545 C166.910985,62.9034091 167.916667,62.0965909 168.613636,61.0625 C169.310606,60.0284091 169.659091,58.8295455 169.659091,57.4659091 C169.659091,56.4583333 169.469697,55.5795455 169.090909,54.8295455 C168.712121,54.0795455 168.198864,53.4393939 167.551136,52.9090909 C166.903409,52.3787879 166.172348,51.9393939 165.357955,51.5909091 C164.543561,51.2424242 163.69697,50.9659091 162.818182,50.7613636 L162.818182,50.7613636 L160.636364,50.2159091 C160.159091,50.1022727 159.685606,49.9621212 159.215909,49.7954545 C158.746212,49.6287879 158.318182,49.4223485 157.931818,49.1761364 C157.545455,48.9299242 157.24053,48.6287879 157.017045,48.2727273 C156.793561,47.9166667 156.681818,47.4962121 156.681818,47.0113636 C156.689394,46.4280303 156.859848,45.9090909 157.193182,45.4545455 C157.526515,45 158.007576,44.6401515 158.636364,44.375 C159.265152,44.1098485 160.018939,43.9772727 160.897727,43.9772727 C162.147727,43.9772727 163.164773,44.2537879 163.948864,44.8068182 C164.732955,45.3598485 165.17803,46.1325758 165.284091,47.125 L165.284091,47.125 L169.340909,47.125 C169.318182,45.8143939 168.950758,44.6534091 168.238636,43.6420455 C167.526515,42.6306818 166.547348,41.8390152 165.301136,41.2670455 C164.054924,40.6950758 162.606061,40.4090909 160.954545,40.4090909 C159.325758,40.4090909 157.867424,40.6950758 156.579545,41.2670455 C155.291667,41.8390152 154.274621,42.6401515 153.528409,43.6704545 C152.782197,44.7007576 152.409091,45.9015152 152.409091,47.2727273 C152.409091,48.9393939 152.964015,50.2746212 154.073864,51.2784091 C155.183712,52.282197 156.69697,53.030303 158.613636,53.5227273 L158.613636,53.5227273 L161.261364,54.2045455 C162.094697,54.4166667 162.823864,54.657197 163.448864,54.9261364 C164.073864,55.1950758 164.560606,55.5284091 164.909091,55.9261364 C165.257576,56.3238636 165.435606,56.8257576 165.443182,57.4318182 C165.435606,58.0984848 165.234848,58.6799242 164.840909,59.1761364 C164.44697,59.6723485 163.903409,60.0587121 163.210227,60.3352273 C162.517045,60.6117424 161.712121,60.75 160.795455,60.75 C159.916667,60.75 159.123106,60.6174242 158.414773,60.3522727 C157.706439,60.0871212 157.132576,59.6856061 156.693182,59.1477273 C156.253788,58.6098485 156.003788,57.9356061 155.943182,57.125 L155.943182,57.125 L151.795455,57.125 C151.856061,58.6704545 152.25947,59.9810606 153.005682,61.0568182 C153.751894,62.1325758 154.789773,62.9507576 156.119318,63.5113636 C157.448864,64.0719697 159.018939,64.3522727 160.829545,64.3522727 Z M177.886364,57.1590909 L178.261364,40.7272727 L173.863636,40.7272727 L174.227273,57.1590909 L177.886364,57.1590909 Z M176.056818,64.25 C176.511364,64.25 176.926136,64.1382576 177.301136,63.9147727 C177.676136,63.6912879 177.979167,63.3901515 178.210227,63.0113636 C178.441288,62.6325758 178.556818,62.2121212 178.556818,61.75 C178.556818,61.0681818 178.308712,60.4848485 177.8125,60 C177.316288,59.5151515 176.731061,59.2727273 176.056818,59.2727273 C175.367424,59.2727273 174.778409,59.5151515 174.289773,60 C173.801136,60.4848485 173.556818,61.0681818 173.556818,61.75 C173.556818,62.4469697 173.801136,63.0378788 174.289773,63.5227273 C174.778409,64.0075758 175.367424,64.25 176.056818,64.25 Z" id="JOINUS!" fill="#F64444" fill-rule="nonzero"></path>
                </g>
            </g>
        </g>
    </g>
</svg>