<?xml version="1.0" encoding="UTF-8"?>
<svg width="18px" height="15px" viewBox="0 0 18 15" version="1.1" xmlns="http://www.w3.org/2000/svg" xmlns:xlink="http://www.w3.org/1999/xlink">
    <title>Shape</title>
    <g id="Page-1" stroke="none" stroke-width="1" fill="none" fill-rule="evenodd">
        <path d="M17.0177385,14.022 L0.991738498,14.022 C0.735738498,14.012 0.665738498,13.979 0.536738498,13.913 C-0.0152615023,13.632 -0.183261502,12.779 0.283738498,12.312 C0.468738498,12.127 0.726738498,12.029 0.991738498,12.019 L17.0177385,12.019 C17.0437385,12.02 17.0697385,12.021 17.0957385,12.022 C17.3507385,12.052 17.4177385,12.091 17.5407385,12.167 C18.0517385,12.48 18.1617385,13.293 17.7257385,13.729 C17.5407385,13.914 17.2827385,14.012 17.0177385,14.022 Z M17.0177385,8.013 L0.991738498,8.013 C0.311738498,7.986 -0.231261502,7.205 0.0997384977,6.556 C0.241738498,6.276 0.523738498,6.071 0.834738498,6.022 C0.904738498,6.011 0.921738498,6.012 0.991738498,6.009 L17.0177385,6.009 C17.0437385,6.01 17.0697385,6.011 17.0957385,6.012 C17.3507385,6.043 17.4177385,6.082 17.5407385,6.157 C18.0507385,6.469 18.1677385,7.278 17.7257385,7.719 C17.5407385,7.905 17.2827385,8.002 17.0177385,8.013 Z M17.0177385,2.003 L0.991738498,2.003 C0.735738498,1.993 0.665738498,1.959 0.536738498,1.894 C-0.0152615023,1.612 -0.183261502,0.76 0.283738498,0.293 C0.468738498,0.108 0.726738498,0.01 0.991738498,0 L17.0177385,0 C17.0437385,0.001 17.0697385,0.002 17.0957385,0.003 C17.3507385,0.033 17.4177385,0.072 17.5407385,0.147 C18.0487385,0.459 18.1697385,1.265 17.7257385,1.71 C17.5407385,1.895 17.2827385,1.993 17.0177385,2.003 L17.0177385,2.003 Z" id="Shape" fill="#FFFFFF"></path>
    </g>
</svg>