<svg xmlns="http://www.w3.org/2000/svg" xmlns:xlink="http://www.w3.org/1999/xlink" version="1.1" x="0px" y="0px" viewBox="0 0 100 125" style="enable-background:new 0 0 100 100;" xml:space="preserve"><style type="text/css">
	.st0{fill:none;stroke:#000000;stroke-width:2;stroke-linecap:round;stroke-miterlimit:10;}
	.st1{fill:none;stroke:#000000;stroke-width:2;stroke-linecap:round;stroke-linejoin:round;stroke-miterlimit:10;}
	.st2{stroke:#000000;stroke-width:2;stroke-linecap:round;stroke-linejoin:round;stroke-miterlimit:10;}
	.st3{fill:none;stroke:#000000;stroke-width:2;stroke-miterlimit:10;}
</style><path d="M24.5,88.6h51.3c0.6,0,1-0.4,1-1V71.7c0-11.6-8.5-21.4-18.5-21.4H58v-0.9c7.5,0,11.1-3.5,11.3-3.7c0.2-0.2,0.3-0.6,0.3-0.9  c-0.1-0.3-0.3-0.6-0.6-0.7c-3.2-1.3-4.7-6.8-4.8-7.3c0.5-1.5,0.8-3.1,0.8-4.7c0-3.3-1.1-6.5-3.1-9.1V11.3c0-0.6-0.4-1-1-1H39.2  c-0.6,0-1,0.4-1,1V23c-2,2.6-3.1,5.8-3.1,9.1c0,1.7,0.3,3.4,0.9,5c-0.5,1.8-2.1,6-4.7,7.1c-0.3,0.1-0.5,0.4-0.6,0.7  c-0.1,0.3,0,0.7,0.3,0.9c0.2,0.2,3.8,3.7,11.3,3.7v0.9H42c-10,0-18.5,9.8-18.5,21.4v15.9C23.5,88.1,23.9,88.6,24.5,88.6z M44.2,45.8  c0.4,0.2,0.8,0.3,1.1,0.4c0.1,0,2,0.6,4.6,0.6c1.4,0,2.9-0.1,4.6-0.6c0,0,0,0,0.1,0c0.4-0.1,0.9-0.3,1.3-0.5v5l-0.2,0.1  c-3.5,2.1-7.8,2.1-11.3,0l-0.2-0.1V45.8z M66.7,45.1c-1.5,0.9-4.4,2.3-8.8,2.3v-2.7c2.1-1.3,3.8-3.1,5-5.2  C63.6,41.2,64.8,43.6,66.7,45.1z M62.9,32.1c0,5.6-3.5,10.5-8.8,12.2c-4.3,1.1-8.1,0-8.1,0c-5.1-1.7-8.6-6.3-8.8-11.7  c2.6-0.5,13.1-2.7,19.4-8.6c0,0,0,0,0,0h3.5C61.9,26.3,62.9,29.2,62.9,32.1z M59.8,12.3V22H40.2v-9.8H59.8z M40,24h13.5  c-5.6,4.1-13.5,6-16.2,6.5C37.5,28.2,38.5,25.9,40,24z M33.4,45.1c1.8-1.4,3-3.7,3.8-5.5c1.2,2.1,2.9,3.8,5,5.1v2.6  C37.8,47.4,34.9,46,33.4,45.1z M25.5,71.7c0-10.3,7.7-19.4,16.5-19.4h1l0.5,0.3c2.1,1.2,4.3,1.8,6.6,1.8c2.3,0,4.6-0.6,6.7-1.9  l0.4-0.3h1c8.8,0,16.5,9.1,16.5,19.4v14.9H25.5V71.7z"/><path d="M47.9,18.1h1.2v1.2c0,0.6,0.4,1,1,1s1-0.4,1-1v-1.2h1.2c0.6,0,1-0.4,1-1s-0.4-1-1-1h-1.2v-1.2c0-0.6-0.4-1-1-1s-1,0.4-1,1  v1.2h-1.2c-0.6,0-1,0.4-1,1S47.3,18.1,47.9,18.1z"/><path d="M54.5,71.3h-3.3V68c0-0.6-0.4-1-1-1s-1,0.4-1,1v3.3h-3.3c-0.6,0-1,0.4-1,1s0.4,1,1,1h3.3v3.3c0,0.6,0.4,1,1,1s1-0.4,1-1  v-3.3h3.3c0.6,0,1-0.4,1-1S55,71.3,54.5,71.3z"/><text x="0" y="115" fill="#000000" font-size="5px" font-weight="bold" font-family="'Helvetica Neue', Helvetica, Arial-Unicode, Arial, Sans-serif">Created by Made</text><text x="0" y="120" fill="#000000" font-size="5px" font-weight="bold" font-family="'Helvetica Neue', Helvetica, Arial-Unicode, Arial, Sans-serif">from the Noun Project</text></svg>