<svg xmlns="http://www.w3.org/2000/svg" xmlns:xlink="http://www.w3.org/1999/xlink" version="1.1" x="0px" y="0px" viewBox="0 0 100 125" style="enable-background:new 0 0 100 100;" xml:space="preserve"><path d="M81.865,73.751c-1.743,0-3.356,0.557-4.681,1.496L63.107,60.829c1.588-1.898,2.547-4.338,2.547-7  c0-3.914-2.076-7.344-5.177-9.273l8.24-13.573c1.311,0.558,2.752,0.868,4.264,0.868c1.124,0,2.208-0.171,3.229-0.488l4.416,14.189  c-2.774,0.951-4.777,3.579-4.777,6.672c0,3.892,3.166,7.058,7.058,7.058s7.058-3.166,7.058-7.058s-3.166-7.058-7.058-7.058  c-0.102,0-0.2,0.011-0.301,0.015l-4.542-14.593c3.47-1.833,5.843-5.474,5.843-9.663C83.907,14.9,79.006,10,72.981,10  c-4.876,0-9.014,3.212-10.416,7.63L40.36,16.118C39.898,12.67,36.944,10,33.372,10c-3.892,0-7.058,3.166-7.058,7.058  c0,1.407,0.418,2.716,1.131,3.818l-6.115,6.922c-0.987-0.427-2.073-0.667-3.216-0.667c-4.48,0-8.125,3.645-8.125,8.125  c0,4.479,3.645,8.124,8.125,8.124c2.357,0,4.476-1.015,5.962-2.624l20.156,10.076c-0.273,0.954-0.428,1.957-0.428,2.997  c0,2.641,0.943,5.066,2.508,6.957L30.347,75.283c-1.334-0.96-2.965-1.532-4.73-1.532c-4.479,0-8.124,3.645-8.124,8.124  c0,4.48,3.645,8.125,8.124,8.125c4.48,0,8.125-3.645,8.125-8.125c0-1.992-0.724-3.817-1.918-5.232l15.902-14.44  c1.898,1.59,4.34,2.551,7.004,2.551c2.644,0,5.07-0.945,6.962-2.513l14.013,14.352c-1.22,1.422-1.963,3.265-1.963,5.281  c0,4.48,3.645,8.125,8.124,8.125s8.124-3.645,8.124-8.125C89.989,77.396,86.345,73.751,81.865,73.751z M87.965,52.224  c0,2.789-2.269,5.058-5.058,5.058s-5.058-2.269-5.058-5.058s2.269-5.058,5.058-5.058S87.965,49.435,87.965,52.224z M72.981,12  c4.922,0,8.926,4.004,8.926,8.925c0,4.922-4.004,8.926-8.926,8.926s-8.926-4.004-8.926-8.926C64.056,16.004,68.06,12,72.981,12z   M33.372,12c2.789,0,5.058,2.269,5.058,5.058s-2.269,5.058-5.058,5.058s-5.058-2.269-5.058-5.058S30.583,12,33.372,12z   M18.114,41.38c-3.377,0-6.125-2.747-6.125-6.124s2.748-6.125,6.125-6.125s6.124,2.748,6.124,6.125S21.491,41.38,18.114,41.38z   M25.262,39.112c0.622-1.148,0.976-2.462,0.976-3.857c0-2.61-1.242-4.93-3.16-6.418l5.691-6.442  c1.237,1.068,2.844,1.719,4.603,1.719c3.529,0,6.452-2.606,6.968-5.993l21.803,1.484c-0.052,0.433-0.088,0.871-0.088,1.318  c0,3.799,1.951,7.147,4.901,9.106l-8.272,13.626c-1.228-0.479-2.559-0.752-3.955-0.752c-4.274,0-7.972,2.472-9.767,6.057  L25.262,39.112z M25.616,88c-3.377,0-6.124-2.748-6.124-6.125s2.747-6.124,6.124-6.124s6.125,2.747,6.125,6.124S28.993,88,25.616,88  z M45.804,53.829c0-4.921,4.004-8.925,8.926-8.925c4.921,0,8.925,4.004,8.925,8.925c0,4.922-4.004,8.926-8.925,8.926  C49.808,62.755,45.804,58.751,45.804,53.829z M81.865,88c-3.377,0-6.124-2.748-6.124-6.125s2.747-6.124,6.124-6.124  s6.124,2.747,6.124,6.124S85.242,88,81.865,88z"/><path d="M25.154,52c0.553,0,1-0.447,1-1s-0.447-1-1-1h-7.894c-0.553,0-1,0.447-1,1s0.447,1,1,1H25.154z"/><path d="M75.535,64.5c-0.553,0-1,0.447-1,1s0.447,1,1,1h7.894c0.553,0,1-0.447,1-1s-0.447-1-1-1H75.535z"/><path d="M49.155,28.269c-0.391-0.391-1.023-0.391-1.414,0l-5.582,5.581c-0.391,0.391-0.391,1.023,0,1.414  c0.195,0.195,0.451,0.293,0.707,0.293s0.512-0.098,0.707-0.293l5.582-5.581C49.546,29.292,49.546,28.659,49.155,28.269z"/><path d="M51.945,75.252c-0.391-0.391-1.023-0.391-1.414,0s-0.391,1.023,0,1.414l5.582,5.582c0.195,0.195,0.451,0.293,0.707,0.293  s0.512-0.098,0.707-0.293c0.391-0.391,0.391-1.023,0-1.414L51.945,75.252z"/><path d="M28.497,65.153l5.582-5.581c0.391-0.391,0.391-1.023,0-1.414s-1.023-0.391-1.414,0l-5.582,5.581  c-0.391,0.391-0.391,1.023,0,1.414c0.195,0.195,0.451,0.293,0.707,0.293S28.302,65.349,28.497,65.153z"/><text x="0" y="115" fill="#000000" font-size="5px" font-weight="bold" font-family="'Helvetica Neue', Helvetica, Arial-Unicode, Arial, Sans-serif">Created by Made</text><text x="0" y="120" fill="#000000" font-size="5px" font-weight="bold" font-family="'Helvetica Neue', Helvetica, Arial-Unicode, Arial, Sans-serif">from the Noun Project</text></svg>