<svg xmlns="http://www.w3.org/2000/svg" xmlns:xlink="http://www.w3.org/1999/xlink" version="1.1" x="0px" y="0px" viewBox="0 0 100 125" style="enable-background:new 0 0 100 100;" xml:space="preserve"><path d="M24.2744141,10c-0.5522461,0-1,0.4472656-1,1v3.4772339c-2.3408203,0.4312134-4.1108398,2.3422852-4.1108398,4.6311646  v3.3466797h-1.1723633c-3.2675781,0-5.9257812,2.6347656-5.9257812,5.8740234v51.3964844H11c-0.5522461,0-1,0.4472656-1,1  s0.4477539,1,1,1h5.6533203V88h-2.5849609c-0.5522461,0-1,0.4472656-1,1s0.4477539,1,1,1h19.828125c0.5522461,0,1-0.4472656,1-1  s-0.4477539-1-1-1h-2.3920898v-6.2744141h5.8291016c0.5522461,0,1-0.4472656,1-1s-0.4477539-1-1-1H36.027832V28.3291016  c0-3.2392578-2.6586914-5.8740234-5.9262695-5.8740234h-0.7163086v-3.3466797c0-2.2888794-1.7700195-4.1999512-4.1108398-4.6311646  V11C25.2744141,10.4472656,24.8266602,10,24.2744141,10z M29.5043945,88H18.6533203v-6.2744141h10.8510742V88z   M14.0654297,79.7255859V44.6728516H34.027832v35.0527344H14.0654297z M34.027832,28.3291016v14.34375H14.0654297v-14.34375  c0-2.1357422,1.7612305-3.8740234,3.9257812-3.8740234h12.1103516C32.2666016,24.4550781,34.027832,26.1933594,34.027832,28.3291016  z M27.3852539,19.1083984v3.3466797h-6.2216797v-3.3466797c0-1.5019531,1.3955078-2.7246094,3.1108398-2.7246094  S27.3852539,17.6064453,27.3852539,19.1083984z"/><path d="M23.4423828,70.5761719h-4.4086914c-0.5522461,0-1,0.4472656-1,1s0.4477539,1,1,1h4.4086914c0.5522461,0,1-0.4472656,1-1  S23.9946289,70.5761719,23.4423828,70.5761719z"/><path d="M23.4423828,61.2753906h-4.4086914c-0.5522461,0-1,0.4472656-1,1s0.4477539,1,1,1h4.4086914c0.5522461,0,1-0.4472656,1-1  S23.9946289,61.2753906,23.4423828,61.2753906z"/><path d="M19.0336914,53.9736328h4.4086914c0.5522461,0,1-0.4472656,1-1s-0.4477539-1-1-1h-4.4086914c-0.5522461,0-1,0.4472656-1,1  S18.4814453,53.9736328,19.0336914,53.9736328z"/><path d="M53.6503906,50.3583984h-4.0888672c-0.5522461,0-1,0.4472656-1,1s0.4477539,1,1,1h4.0888672c0.5522461,0,1-0.4472656,1-1  S54.2026367,50.3583984,53.6503906,50.3583984z"/><path d="M53.6503906,59.6591797h-4.0888672c-0.5522461,0-1,0.4472656-1,1s0.4477539,1,1,1h4.0888672c0.5522461,0,1-0.4472656,1-1  S54.2026367,59.6591797,53.6503906,59.6591797z"/><path d="M53.6503906,41.0576172h-4.0888672c-0.5522461,0-1,0.4472656-1,1s0.4477539,1,1,1h4.0888672c0.5522461,0,1-0.4472656,1-1  S54.2026367,41.0576172,53.6503906,41.0576172z"/><path d="M53.6503906,31.7558594h-4.0888672c-0.5522461,0-1,0.4472656-1,1s0.4477539,1,1,1h4.0888672c0.5522461,0,1-0.4472656,1-1  S54.2026367,31.7558594,53.6503906,31.7558594z"/><path d="M80.3286133,50.3583984h-4.0888672c-0.5522461,0-1,0.4472656-1,1s0.4477539,1,1,1h4.0888672c0.5522461,0,1-0.4472656,1-1  S80.8808594,50.3583984,80.3286133,50.3583984z"/><path d="M80.3286133,59.6591797h-4.0888672c-0.5522461,0-1,0.4472656-1,1s0.4477539,1,1,1h4.0888672c0.5522461,0,1-0.4472656,1-1  S80.8808594,59.6591797,80.3286133,59.6591797z"/><path d="M80.3286133,41.0576172h-4.0888672c-0.5522461,0-1,0.4472656-1,1s0.4477539,1,1,1h4.0888672c0.5522461,0,1-0.4472656,1-1  S80.8808594,41.0576172,80.3286133,41.0576172z"/><path d="M80.3286133,31.7558594h-4.0888672c-0.5522461,0-1,0.4472656-1,1s0.4477539,1,1,1h4.0888672c0.5522461,0,1-0.4472656,1-1  S80.8808594,31.7558594,80.3286133,31.7558594z"/><path d="M19.0336914,35.3720703h4.4086914c0.5522461,0,1-0.4472656,1-1s-0.4477539-1-1-1h-4.4086914c-0.5522461,0-1,0.4472656-1,1  S18.4814453,35.3720703,19.0336914,35.3720703z"/><path d="M51.605957,90C56.234375,90,60,86.2578125,60,81.6582031V19.75c2.1445312-0.8085938,3.527832-3.0117188,3.2358398-5.3505859  C62.9228516,11.8916016,60.684082,10,58.0283203,10H45.1835938c-2.6557617,0-4.8945312,1.8916016-5.2075195,4.3994141  C39.684082,16.7382812,41.0673828,18.9414062,43.2119141,19.75v61.9082031C43.2119141,86.2578125,46.9775391,90,51.605957,90z   M51.605957,88c-3.5258789,0-6.394043-2.8447266-6.394043-6.3417969v-57.203125H58v57.203125  C58,85.1552734,55.1318359,88,51.605957,88z M41.9604492,14.6474609C42.1459961,13.1630859,43.5615234,12,45.1835938,12h12.8447266  c1.6220703,0,3.0375977,1.1630859,3.2231445,2.6474609c0.2006836,1.6083984-0.8500977,3.0566406-2.4438477,3.3691406  C58.3383789,18.1083984,58,18.5195312,58,18.9980469v3.4570312H45.2119141v-3.4570312  c0-0.4785156-0.3383789-0.8896484-0.8076172-0.9814453C42.8105469,17.7041016,41.7597656,16.2558594,41.9604492,14.6474609z"/><path d="M84.7524414,10H71.9077148c-2.6557617,0-4.8945312,1.8916016-5.2075195,4.3994141  c-0.2919922,2.3388672,1.0913086,4.5419922,3.2358398,5.3505859v61.9082031c0,4.5996094,3.765625,8.3417969,8.394043,8.3417969  s8.394043-3.7421875,8.394043-8.3417969V19.75c2.1445312-0.8085938,3.527832-3.0117188,3.2358398-5.3505859  C89.6469727,11.8916016,87.4082031,10,84.7524414,10z M78.3300781,88c-3.5258789,0-6.394043-2.8447266-6.394043-6.3417969  v-57.203125h12.7880859v57.203125C84.7241211,85.1552734,81.855957,88,78.3300781,88z M85.5317383,18.0166016  c-0.4692383,0.0917969-0.8076172,0.5029297-0.8076172,0.9814453v3.4570312H71.9360352v-3.4570312  c0-0.4785156-0.3383789-0.8896484-0.8076172-0.9814453c-1.59375-0.3125-2.6445312-1.7607422-2.4438477-3.3691406  C68.8701172,13.1630859,70.2856445,12,71.9077148,12h12.8447266c1.6220703,0,3.0375977,1.1630859,3.2231445,2.6474609  C88.1762695,16.2558594,87.1254883,17.7041016,85.5317383,18.0166016z"/><text x="0" y="115" fill="#000000" font-size="5px" font-weight="bold" font-family="'Helvetica Neue', Helvetica, Arial-Unicode, Arial, Sans-serif">Created by Made</text><text x="0" y="120" fill="#000000" font-size="5px" font-weight="bold" font-family="'Helvetica Neue', Helvetica, Arial-Unicode, Arial, Sans-serif">from the Noun Project</text></svg>