<svg xmlns="http://www.w3.org/2000/svg" xmlns:xlink="http://www.w3.org/1999/xlink" version="1.1" x="0px" y="0px" viewBox="0 0 100 125" style="enable-background:new 0 0 100 100;" xml:space="preserve"><style type="text/css">
	.st0{fill:none;stroke:#000000;stroke-width:2;stroke-linecap:round;stroke-miterlimit:10;}
	.st1{fill:none;stroke:#000000;stroke-width:2;stroke-linecap:round;stroke-linejoin:round;stroke-miterlimit:10;}
	.st2{stroke:#000000;stroke-width:2;stroke-linecap:round;stroke-linejoin:round;stroke-miterlimit:10;}
	.st3{fill:none;stroke:#000000;stroke-width:2;stroke-miterlimit:10;}
</style><path d="M69.1,79.5c-0.1,0.5,0.2,1.1,0.7,1.2l0.6,0.1l-0.1,0.6c-0.1,0.5,0.2,1.1,0.7,1.2c0.1,0,0.2,0,0.2,0c0.5,0,0.9-0.3,1-0.8  l0.1-0.6l0.6,0.1c0.1,0,0.2,0,0.2,0c0.5,0,0.9-0.3,1-0.8c0.1-0.5-0.2-1.1-0.7-1.2l-0.6-0.1l0.1-0.6c0.1-0.5-0.2-1.1-0.7-1.2  c-0.5-0.1-1.1,0.2-1.2,0.7l-0.1,0.6l-0.6-0.1C69.7,78.6,69.2,79,69.1,79.5z"/><path d="M45,55.6l13.3,3.2c0.1,0,0.2,0,0.2,0c0.5,0,0.9-0.3,1-0.8c0.1-0.5-0.2-1.1-0.7-1.2l-13.3-3.2c-0.5-0.1-1.1,0.2-1.2,0.7  C44.2,55,44.5,55.5,45,55.6z"/><path d="M58.1,63.9c0.1-0.5-0.2-1.1-0.7-1.2l-13.3-3.2c-0.5-0.1-1.1,0.2-1.2,0.7c-0.1,0.5,0.2,1.1,0.7,1.2l13.3,3.2  c0.1,0,0.2,0,0.2,0C57.6,64.6,58,64.3,58.1,63.9z"/><path d="M56,68.4l-13.3-3.2c-0.5-0.1-1.1,0.2-1.2,0.7c-0.1,0.5,0.2,1.1,0.7,1.2l13.3,3.2c0.1,0,0.2,0,0.2,0c0.5,0,0.9-0.3,1-0.8  C56.9,69.1,56.5,68.6,56,68.4z"/><path d="M54.6,74.2L41.3,71c-0.5-0.1-1.1,0.2-1.2,0.7c-0.1,0.5,0.2,1.1,0.7,1.2l13.3,3.2c0.1,0,0.2,0,0.2,0c0.5,0,0.9-0.3,1-0.8  C55.5,74.9,55.1,74.3,54.6,74.2z"/><path d="M89.6,58.1l-18-4.3l6.1-3c2.4-1.2,3.4-4.1,2.2-6.5L75,34.4l0.4-0.2c0.7-0.3,1.2-0.9,1.4-1.6c0.2-0.7,0.2-1.5-0.1-2.2l-4-8.2  c-0.3-0.7-0.9-1.2-1.6-1.4c-0.7-0.2-1.5-0.2-2.2,0.1l-0.4,0.2L64,12c-1.2-2.4-4.1-3.4-6.5-2.2l-45,22.1c-1.2,0.6-2,1.6-2.5,2.8  s-0.3,2.5,0.2,3.7l15.8,32.3c0.6,1.2,1.6,2,2.8,2.5c0.5,0.2,1,0.3,1.6,0.3c0.7,0,1.5-0.2,2.1-0.5l1.4-0.7L32.9,77  c-0.1,0.3,0,0.5,0.1,0.8s0.4,0.4,0.6,0.5L82,89.8c0.1,0,0.2,0,0.2,0c0.5,0,0.9-0.3,1-0.8l7.1-29.7c0.1-0.3,0-0.5-0.1-0.8  S89.8,58.2,89.6,58.1z M70.1,22.6c0.1,0,0.2,0,0.3,0c0.2,0.1,0.4,0.2,0.5,0.4l4,8.2c0.1,0.2,0.1,0.4,0,0.6c-0.1,0.2-0.2,0.4-0.4,0.5  l-18.7,9.1c0,0,0,0,0,0c-0.2,0.1-0.4,0.1-0.6,0c-0.2-0.1-0.4-0.2-0.5-0.4l-4-8.2c-0.2-0.4,0-0.9,0.4-1.1l17.4-8.5c0,0,0,0,0,0  s0,0,0,0l1.3-0.6C69.9,22.7,70,22.6,70.1,22.6z M34.5,69.7L31.8,71c-0.7,0.3-1.5,0.4-2.2,0.1c-0.7-0.2-1.3-0.8-1.6-1.4L12.1,37.4  c-0.3-0.7-0.4-1.5-0.1-2.2c0.2-0.7,0.8-1.3,1.4-1.6l45-22.1c0.7-0.3,1.5-0.4,2.2-0.1c0.7,0.2,1.3,0.8,1.6,1.4l4.5,9.1l-16.5,8.1  c-0.7,0.3-1.2,0.9-1.4,1.6c-0.2,0.7-0.2,1.5,0.1,2.2l4,8.2c0.3,0.7,0.9,1.2,1.6,1.4c0.3,0.1,0.6,0.2,0.9,0.2c0.4,0,0.8-0.1,1.2-0.3  v0l16.5-8.1l4.9,9.9c0.7,1.4,0.1,3.1-1.3,3.8L68.5,53c0,0,0,0,0,0l-27.3-6.6c-0.5-0.1-1.1,0.2-1.2,0.7l-5.4,22.5  C34.6,69.7,34.5,69.7,34.5,69.7z M41.7,48.7l22.5,5.4l-6.7,27.8L35,76.5L41.7,48.7z M78.2,68.2c-0.4,1.5-1.7,2.6-3.2,2.8  c-1.2,0-2.3-0.5-2.3-0.5c-1.3-0.8-2-2.4-1.6-4c0.2-0.7,0.6-1.3,1.1-1.8l5.9,1.4C78.3,66.8,78.4,67.5,78.2,68.2z M72.1,72.4  c0.5,0.2,1.4,0.5,2.5,0.6l-0.1,0.4c-0.9,0.2-1.8,0-2.5-0.6L72.1,72.4z M78.1,64l-5.1-1.2l0.3-1.2l5.1,1.2L78.1,64z M70.3,74l0.1,0  l0,0c1,0.9,2.2,1.4,3.5,1.4c0.5,0,1-0.1,1.5-0.2l0.2,0c2.5,0.6,4.1,3.8,3.4,6.8l-1.1,4.7l-14.8-3.6l1.1-4.7c0.4-1.5,1.2-2.8,2.5-3.7  C67.8,74,69.1,73.7,70.3,74z M81.5,87.6l-1.7-0.4l1.1-4.7c0.9-3.9-1-7.9-4.3-9.1l0.2-0.9c1.6-0.7,2.9-2.1,3.3-3.9  c0.3-1.1,0.2-2.3-0.3-3.4l0.7-2.9c0.1-0.3,0-0.5-0.1-0.8s-0.4-0.4-0.6-0.5l-7-1.7c-0.5-0.1-1.1,0.2-1.2,0.7l-0.7,2.9  c-0.9,0.8-1.5,1.8-1.8,2.9c-0.4,1.8,0.1,3.7,1.2,5l-0.2,0.9c-1.6-0.2-3.2,0.2-4.7,1.3c-1.6,1.1-2.8,2.9-3.3,4.9l-1.1,4.7l-1.6-0.4  l6.7-27.8l21.9,5.3L81.5,87.6z"/><path d="M58.1,33.3l-2,1c-0.5,0.2-0.7,0.8-0.5,1.3c0.2,0.4,0.5,0.6,0.9,0.6c0.1,0,0.3,0,0.4-0.1l2-1c0.5-0.2,0.7-0.8,0.5-1.3  C59.2,33.3,58.6,33.1,58.1,33.3z"/><text x="0" y="115" fill="#000000" font-size="5px" font-weight="bold" font-family="'Helvetica Neue', Helvetica, Arial-Unicode, Arial, Sans-serif">Created by Made</text><text x="0" y="120" fill="#000000" font-size="5px" font-weight="bold" font-family="'Helvetica Neue', Helvetica, Arial-Unicode, Arial, Sans-serif">from the Noun Project</text></svg>