<svg xmlns="http://www.w3.org/2000/svg" xmlns:xlink="http://www.w3.org/1999/xlink" version="1.1" x="0px" y="0px" viewBox="0 0 100 125" style="enable-background:new 0 0 100 100;" xml:space="preserve"><path d="M39.78125,44.1757812c2.890625,0,5.989502-0.2341919,9.2705078-0.6776123v16.0186157  c-7.9414062-0.2431641-13.2109375-3.328064-13.2109375-6.2247925c0-1.2763672,1.0205078-2.5830078,2.8730469-3.6796875  c0.4746094-0.28125,0.6318359-0.8945312,0.3505859-1.3696289c-0.2802734-0.4746094-0.8925781-0.6328125-1.3701172-0.3510742  c-2.484375,1.4707031-3.8535156,3.3886719-3.8535156,5.4003906c0,3.2249146,3.4667969,5.9581299,8.6435547,7.3203125  c-4.0720215,1.2626343-6.7441406,3.5251465-6.7441406,6.1669922c0,2.7888794,2.9677734,5.1624756,7.4279785,6.375  c-2.770752,1.0507812-4.5119629,2.7450562-4.5119629,4.7358398c0,2.3949585,2.5157471,4.362793,6.3225098,5.2919312  c-4.3908691,2.0959473-5.0307617,5.4697876-5.0617676,5.6533813c-0.0898438,0.5410156,0.2724609,1.0478516,0.8125,1.144043  c0.0585938,0.0102539,0.1162109,0.0151367,0.1738281,0.0151367c0.4726562,0,0.8945312-0.3398438,0.984375-0.8203125  c0.0323486-0.1694946,0.8288574-3.9561768,7.1640625-5.225708V89c0,0.5522461,0.4472656,1,1,1s1-0.4477539,1-1v-5.0515137  c6.322998,1.2669067,7.1289062,5.0401611,7.1640625,5.2248535C58.3017578,89.6577148,58.7226562,90,59.2001953,90  c0.0546875,0,0.109375-0.0043945,0.1650391-0.0136719c0.5449219-0.0908203,0.9130859-0.605957,0.8222656-1.1508789  c-0.0308838-0.1835938-0.6708984-3.5575562-5.0617676-5.6534424c3.8068848-0.9291992,6.3225098-2.8969727,6.3225098-5.2918701  c0-1.9908447-1.741333-3.6851807-4.5124512-4.7359009c4.4604492-1.2125244,7.4284668-3.5861206,7.4284668-6.374939  c0-2.6418457-2.6726074-4.9043579-6.7449951-6.1669922c5.1766357-1.3622437,8.6434326-4.095459,8.6434326-7.3203125  c0-2.012207-1.3681641-3.9301758-3.8525391-5.4003906c-0.4755859-0.2817383-1.0888672-0.1235352-1.3701172,0.3510742  c-0.28125,0.4750977-0.1240234,1.0883789,0.3505859,1.3696289c1.8525391,1.0961914,2.8720703,2.402832,2.8720703,3.6796875  c0,2.8967285-5.2695312,5.9816284-13.2109375,6.2247925V43.5118408c3.2426758,0.4342041,6.3059082,0.6639404,9.1669922,0.6639404  c9.7519531-0.0004883,17.2675781-2.5205078,22.4140625-7.5341797c8.7255859-8.4990234,7.3193359-20.9116211,7.2548828-21.4360352  c-0.0546875-0.4477539-0.4023438-0.8032227-0.8486328-0.8681641c-0.1835938-0.0263672-4.5273438-0.637207-9.4814453,0.2978516  c-6.7128906,1.2666016-11.2597656,4.7832031-13.1494141,10.1704102  c-3.3603516,9.5766602-12.2487793,11.0446167-15.3564453,11.2649536v-4.130127  c5.5881348-0.5081177,9.9824219-5.2198486,9.9824219-10.9448853C61.0341797,14.9326172,56.1074219,10,50.0517578,10  s-10.9814453,4.9326172-10.9814453,10.9956055c0,5.7250366,4.3933105,10.4367676,9.9814453,10.9448853v4.1274414  c-2.996582-0.2215576-12.0963135-1.6765137-15.4599609-11.2622681c-1.8896484-5.387207-6.4365234-8.9038086-13.1494141-10.1704102  c-4.953125-0.934082-9.2978516-0.3237305-9.4814453-0.2978516c-0.4462891,0.0649414-0.7939453,0.4204102-0.8486328,0.8681641  c-0.0644531,0.5244141-1.4707031,12.9370117,7.2548828,21.4360352C22.5136719,41.6557617,30.0283203,44.1757812,39.78125,44.1757812  z M37.7402344,66.7792969c0-2.3619385,4.598877-4.9748535,11.3115234-5.2150879v10.4301758  C42.3391113,71.7541504,37.7402344,69.1412354,37.7402344,66.7792969z M40.65625,77.8901367  c0-1.7191162,3.3995361-3.6218872,8.3955078-3.8491211v7.6977539C44.0557861,81.5115356,40.65625,79.6087646,40.65625,77.8901367z   M59.4482422,77.8901367c0,1.7186279-3.4003906,3.6213989-8.3964844,3.8486328v-7.6977539  C56.0478516,74.2682495,59.4482422,76.1710205,59.4482422,77.8901367z M62.3642578,66.7792969  c0,2.3619385-4.598999,4.9748535-11.3125,5.2150879V61.564209C57.7652588,61.8044434,62.3642578,64.4173584,62.3642578,66.7792969z   M68.2949219,25.4677734c3.4824219-9.9262695,16.3378906-9.5146484,19.6679688-9.2333984  c0.1464844,2.7802734,0.0976562,12.3286133-6.7255859,18.9746094c-6.2341309,6.0738525-16.3944092,8.1818848-30.1855469,6.2858276  v-3.4262695C54.4399414,37.8209839,64.548584,36.1486816,68.2949219,25.4677734z M41.0703125,20.9956055  C41.0703125,16.0356445,45.0996094,12,50.0517578,12c4.953125,0,8.9824219,4.0356445,8.9824219,8.9956055  s-4.0292969,8.9956055-8.9824219,8.9956055C45.0996094,29.9912109,41.0703125,25.9555664,41.0703125,20.9956055z   M12.0390625,16.234375c3.3271484-0.2792969,16.1835938-0.6899414,19.6660156,9.2333984  c3.7818604,10.7785645,14.0628662,12.3799438,17.3466797,12.6060791v3.4072266  c-13.8325195,1.9193115-24.0218506-0.1790161-30.2753906-6.2584229  C11.9570312,28.5927734,11.8955078,19.0200195,12.0390625,16.234375z"/><text x="0" y="115" fill="#000000" font-size="5px" font-weight="bold" font-family="'Helvetica Neue', Helvetica, Arial-Unicode, Arial, Sans-serif">Created by Made</text><text x="0" y="120" fill="#000000" font-size="5px" font-weight="bold" font-family="'Helvetica Neue', Helvetica, Arial-Unicode, Arial, Sans-serif">from the Noun Project</text></svg>