<svg xmlns="http://www.w3.org/2000/svg" xmlns:xlink="http://www.w3.org/1999/xlink" version="1.1" x="0px" y="0px" viewBox="0 0 100 125" style="enable-background:new 0 0 100 100;" xml:space="preserve"><path d="M45.4052734,64.9912109h-5.9316406v-5.9316406c0-0.5522461-0.4472656-1-1-1h-9.0498047c-0.5527344,0-1,0.4477539-1,1  v5.9316406h-5.9316406c-0.5527344,0-1,0.4477539-1,1v9.050293c0,0.5522461,0.4472656,1,1,1h5.9316406v5.9316406  c0,0.5522461,0.4472656,1,1,1h9.0498047c0.5527344,0,1-0.4477539,1-1v-5.9316406h5.9316406c0.5527344,0,1-0.4477539,1-1v-9.050293  C46.4052734,65.4389648,45.9580078,64.9912109,45.4052734,64.9912109z M44.4052734,74.0415039h-5.9316406  c-0.5527344,0-1,0.4477539-1,1v5.9316406h-7.0498047v-5.9316406c0-0.5522461-0.4472656-1-1-1h-5.9316406v-7.050293h5.9316406  c0.5527344,0,1-0.4477539,1-1v-5.9316406h7.0498047v5.9316406c0,0.5522461,0.4472656,1,1,1h5.9316406V74.0415039z"/><path d="M13.4433594,50.1196289v31.7958984C13.4433594,86.3735352,17.0703125,90,21.5283203,90h56.9013672  c4.4580078,0,8.0839844-3.6264648,8.0839844-8.0844727V50.119812c2.038269-0.9085693,3.4648438-2.9504395,3.4648438-5.3224487  V29.5927734c0-0.5522461-0.4472656-1-1-1H70.2323608C69.9015503,18.2902222,60.9553833,10,49.9785156,10  c-10.9758911,0-19.9220581,8.2902222-20.2528687,18.5927734H10.9785156c-0.5527344,0-1,0.4477539-1,1v15.2045898  C9.9785156,47.1692505,11.4049072,49.2109375,13.4433594,50.1196289z M84.5136719,81.9155273  C84.5136719,85.2705078,81.7841797,88,78.4296875,88H21.5283203c-3.3554688,0-6.0849609-2.7294922-6.0849609-6.0844727v-31.30896  C15.5641479,50.6140747,15.684021,50.625,15.8066406,50.625h28.1201172v2.862793c0,0.5522461,0.4472656,1,1,1H55.09375  c0.5527344,0,1-0.4477539,1-1V50.625h28.0576172c0.1223145,0,0.2418823-0.0109253,0.3623047-0.0183716V81.9155273z   M45.9267578,52.487793v-9.6962891H54.09375v9.6962891H45.9267578z M49.9785156,12  c9.8720093,0,17.9216919,7.3928833,18.2536011,16.5927734h-4.6716309  c-0.3260498-6.8348389-6.2835083-12.3041992-13.5819702-12.3041992c-7.2974854,0-13.2549438,5.4693604-13.5809937,12.3041992  h-4.6716309C32.0577393,19.3928833,40.1065063,12,49.9785156,12z M61.5602417,28.5927734H38.3977661  c0.3268433-5.7315063,5.3878174-10.3041992,11.5807495-10.3041992S61.2332764,22.8612671,61.5602417,28.5927734z   M11.9785156,30.5927734h76v14.2045898c0,2.1103516-1.7167969,3.8276367-3.8271484,3.8276367H56.09375v-6.8334961  c0-0.5522461-0.4472656-1-1-1H44.9267578c-0.5527344,0-1,0.4477539-1,1V48.625H15.8066406  c-2.1103516,0-3.828125-1.7172852-3.828125-3.8276367V30.5927734z"/><path d="M76.3740234,58.0595703h-23.703125c-0.5527344,0-1,0.4477539-1,1v22.9135742c0,0.5522461,0.4472656,1,1,1h23.703125  c0.5527344,0,1-0.4477539,1-1V59.0595703C77.3740234,58.5073242,76.9267578,58.0595703,76.3740234,58.0595703z   M75.3740234,80.9731445h-21.703125V60.0595703h21.703125V80.9731445z"/><text x="0" y="115" fill="#000000" font-size="5px" font-weight="bold" font-family="'Helvetica Neue', Helvetica, Arial-Unicode, Arial, Sans-serif">Created by Made</text><text x="0" y="120" fill="#000000" font-size="5px" font-weight="bold" font-family="'Helvetica Neue', Helvetica, Arial-Unicode, Arial, Sans-serif">from the Noun Project</text></svg>