<svg xmlns="http://www.w3.org/2000/svg" xmlns:xlink="http://www.w3.org/1999/xlink" version="1.1" x="0px" y="0px" viewBox="0 0 100 125" style="enable-background:new 0 0 100 100;" xml:space="preserve"><path d="M84.0727539,39.3164062c0-5.1186523-4.1640625-9.2827148-9.2822266-9.2827148  c-5.1186523,0-9.2827148,4.1640625-9.2827148,9.2827148c0,5.1181641,4.1640625,9.2822266,9.2827148,9.2822266  C79.9086914,48.5986328,84.0727539,44.4345703,84.0727539,39.3164062z M67.5078125,39.3164062  c0-4.015625,3.2670898-7.2827148,7.2827148-7.2827148s7.2822266,3.2670898,7.2822266,7.2827148  s-3.2666016,7.2822266-7.2822266,7.2822266S67.5078125,43.3320312,67.5078125,39.3164062z"/><path d="M63.465332,58.1503906L59.5957031,80.5c-0.050293,0.2905273,0.0302734,0.5888672,0.2202148,0.8144531  s0.4702148,0.355957,0.7651367,0.355957h5.8886719V89c0,0.5522461,0.4477539,1,1,1h14.6411133c0.5522461,0,1-0.4477539,1-1  v-7.3295898H89c0.2949219,0,0.5751953-0.1303711,0.7651367-0.355957S90.0356445,80.7905273,89.9853516,80.5l-3.8657227-22.3203125  c-0.3720703-2.6069336-2.6401367-4.5727539-5.2763672-4.5727539h-12.105957  C66.1020508,53.6069336,63.8334961,55.5727539,63.465332,58.1503906z M68.7373047,55.6069336h12.105957  c1.6469727,0,3.0644531,1.2275391,3.3012695,2.8842773l3.6674805,21.1791992h-5.7011719c-0.5522461,0-1,0.4477539-1,1V88H68.4697266  v-7.3295898c0-0.5522461-0.4477539-1-1-1H61.769043l3.6713867-21.2080078  C65.6733398,56.8344727,67.0908203,55.6069336,68.7373047,55.6069336z"/><path d="M34.4921875,39.3164062c0-5.1186523-4.1640625-9.2827148-9.2827148-9.2827148  c-5.1181641,0-9.2822266,4.1640625-9.2822266,9.2827148c0,5.1181641,4.1640625,9.2822266,9.2822266,9.2822266  C30.328125,48.5986328,34.4921875,44.4345703,34.4921875,39.3164062z M17.9272461,39.3164062  c0-4.015625,3.2666016-7.2827148,7.2822266-7.2827148s7.2827148,3.2670898,7.2827148,7.2827148  s-3.2670898,7.2822266-7.2827148,7.2822266S17.9272461,43.3320312,17.9272461,39.3164062z"/><path d="M13.8847656,58.1503906L10.0146484,80.5c-0.050293,0.2905273,0.0302734,0.5888672,0.2202148,0.8144531  S10.7050781,81.6704102,11,81.6704102h5.8891602V89c0,0.5522461,0.4477539,1,1,1h14.6411133c0.5522461,0,1-0.4477539,1-1v-7.3295898  h5.8886719c0.2949219,0,0.5751953-0.1303711,0.7651367-0.355957S40.4545898,80.7905273,40.4042969,80.5l-3.8652344-22.3208008  c-0.3725586-2.6064453-2.6411133-4.5722656-5.2763672-4.5722656h-12.105957  C16.5205078,53.6069336,14.2524414,55.5727539,13.8847656,58.1503906z M19.1567383,55.6069336h12.105957  c1.6464844,0,3.0639648,1.2275391,3.3012695,2.8842773l3.6669922,21.1791992h-5.7006836c-0.5522461,0-1,0.4477539-1,1V88H18.8891602  v-7.3295898c0-0.5522461-0.4477539-1-1-1h-5.7011719l3.671875-21.2084961  C16.0922852,56.8344727,17.5097656,55.6069336,19.1567383,55.6069336z"/><path d="M55.2319336,10H44.7680664c-0.5522461,0-1,0.4477539-1,1v6.296875h-6.296875c-0.5522461,0-1,0.4477539-1,1v10.4638672  c0,0.5522461,0.4477539,1,1,1h6.296875v6.296875c0,0.5522461,0.4477539,1,1,1h10.4638672c0.5522461,0,1-0.4477539,1-1v-6.296875  h6.296875c0.5522461,0,1-0.4477539,1-1V18.296875c0-0.5522461-0.4477539-1-1-1h-6.296875V11  C56.2319336,10.4477539,55.7841797,10,55.2319336,10z M61.5288086,19.296875v8.4638672h-6.296875c-0.5522461,0-1,0.4477539-1,1  v6.296875h-8.4638672v-6.296875c0-0.5522461-0.4477539-1-1-1h-6.296875V19.296875h6.296875c0.5522461,0,1-0.4477539,1-1V12  h8.4638672v6.296875c0,0.5522461,0.4477539,1,1,1H61.5288086z"/><text x="0" y="115" fill="#000000" font-size="5px" font-weight="bold" font-family="'Helvetica Neue', Helvetica, Arial-Unicode, Arial, Sans-serif">Created by Made</text><text x="0" y="120" fill="#000000" font-size="5px" font-weight="bold" font-family="'Helvetica Neue', Helvetica, Arial-Unicode, Arial, Sans-serif">from the Noun Project</text></svg>