<svg xmlns="http://www.w3.org/2000/svg" xmlns:xlink="http://www.w3.org/1999/xlink" version="1.1" x="0px" y="0px" viewBox="0 0 100 125" style="enable-background:new 0 0 100 100;" xml:space="preserve"><path d="M28.0415039,15.3574219v69.296875c0,2.9541016,2.4033203,5.3574219,5.3569336,5.3574219h33.2011719  c2.9541016,0,5.3574219-2.4033203,5.3574219-5.3574219v-69.296875C71.9570312,12.4033203,69.5537109,10,66.5996094,10H33.3984375  C30.4448242,10,28.0415039,12.4033203,28.0415039,15.3574219z M69.9570312,73.6152344H30.0415039V21.0869141h39.9155273V73.6152344z   M66.5996094,88.0117188H33.3984375c-1.8510742,0-3.3569336-1.5058594-3.3569336-3.3574219v-9.0390625h39.9155273v9.0390625  C69.9570312,86.5058594,68.4506836,88.0117188,66.5996094,88.0117188z M69.9570312,15.3574219v3.7294922H30.0415039v-3.7294922  C30.0415039,13.5058594,31.5473633,12,33.3984375,12h33.2011719C68.4506836,12,69.9570312,13.5058594,69.9570312,15.3574219z"/><path d="M49.9990234,77.8691406c-2.2700195,0-4.1166992,1.8466797-4.1166992,4.1171875s1.8466797,4.1171875,4.1166992,4.1171875  s4.1166992-1.8466797,4.1166992-4.1171875S52.269043,77.8691406,49.9990234,77.8691406z M49.9990234,84.1035156  c-1.1669922,0-2.1166992-0.9501953-2.1166992-2.1171875s0.949707-2.1171875,2.1166992-2.1171875  s2.1166992,0.9501953,2.1166992,2.1171875S51.1660156,84.1035156,49.9990234,84.1035156z"/><path d="M36.4179688,54.3173828h7.2172852v7.2167969c0,0.5527344,0.4477539,1,1,1h10.7280273c0.5522461,0,1-0.4472656,1-1  v-7.2167969h7.2167969c0.5522461,0,1-0.4472656,1-1V42.5888672c0-0.5527344-0.4477539-1-1-1h-7.2167969v-7.2167969  c0-0.5527344-0.4477539-1-1-1H44.6352539c-0.5522461,0-1,0.4472656-1,1v7.2167969h-7.2172852c-0.5522461,0-1,0.4472656-1,1  v10.7285156C35.4179688,53.8701172,35.8657227,54.3173828,36.4179688,54.3173828z M37.4179688,43.5888672h7.2172852  c0.5522461,0,1-0.4472656,1-1v-7.2167969h8.7280273v7.2167969c0,0.5527344,0.4477539,1,1,1h7.2167969v8.7285156h-7.2167969  c-0.5522461,0-1,0.4472656-1,1v7.2167969h-8.7280273v-7.2167969c0-0.5527344-0.4477539-1-1-1h-7.2172852V43.5888672z"/><text x="0" y="115" fill="#000000" font-size="5px" font-weight="bold" font-family="'Helvetica Neue', Helvetica, Arial-Unicode, Arial, Sans-serif">Created by Made</text><text x="0" y="120" fill="#000000" font-size="5px" font-weight="bold" font-family="'Helvetica Neue', Helvetica, Arial-Unicode, Arial, Sans-serif">from the Noun Project</text></svg>