<svg xmlns="http://www.w3.org/2000/svg" xmlns:xlink="http://www.w3.org/1999/xlink" version="1.1" x="0px" y="0px" viewBox="0 0 100 125" style="enable-background:new 0 0 100 100;" xml:space="preserve"><path d="M43.402,64.204h2.992v2.991c0,0.553,0.448,1,1,1h5.212c0.552,0,1-0.447,1-1v-2.991h2.992c0.552,0,1-0.447,1-1v-5.212  c0-0.553-0.448-1-1-1h-2.992V54c0-0.553-0.448-1-1-1h-5.212c-0.552,0-1,0.447-1,1v2.992h-2.992c-0.552,0-1,0.447-1,1v5.212  C42.402,63.757,42.85,64.204,43.402,64.204z M44.402,58.992h2.992c0.552,0,1-0.447,1-1V55h3.212v2.992c0,0.553,0.448,1,1,1h2.992  v3.212h-2.992c-0.552,0-1,0.447-1,1v2.991h-3.212v-2.991c0-0.553-0.448-1-1-1h-2.992V58.992z"/><path d="M28.873,56.992h-2.992V54c0-0.553-0.448-1-1-1h-5.212c-0.552,0-1,0.447-1,1v2.992h-2.992c-0.552,0-1,0.447-1,1v5.212  c0,0.553,0.448,1,1,1h2.992v2.991c0,0.553,0.448,1,1,1h5.212c0.552,0,1-0.447,1-1v-2.991h2.992c0.552,0,1-0.447,1-1v-5.212  C29.873,57.439,29.425,56.992,28.873,56.992z M27.873,62.204h-2.992c-0.552,0-1,0.447-1,1v2.991h-3.212v-2.991c0-0.553-0.448-1-1-1  h-2.992v-3.212h2.992c0.552,0,1-0.447,1-1V55h3.212v2.992c0,0.553,0.448,1,1,1h2.992V62.204z"/><path d="M71.126,64.204h2.992v2.991c0,0.553,0.448,1,1,1h5.212c0.552,0,1-0.447,1-1v-2.991h2.992c0.552,0,1-0.447,1-1v-5.212  c0-0.553-0.448-1-1-1h-2.992V54c0-0.553-0.448-1-1-1h-5.212c-0.552,0-1,0.447-1,1v2.992h-2.992c-0.552,0-1,0.447-1,1v5.212  C70.126,63.757,70.574,64.204,71.126,64.204z M72.126,58.992h2.992c0.552,0,1-0.447,1-1V55h3.212v2.992c0,0.553,0.448,1,1,1h2.992  v3.212h-2.992c-0.552,0-1,0.447-1,1v2.991h-3.212v-2.991c0-0.553-0.448-1-1-1h-2.992V58.992z"/><path d="M11,89.89h22.551c0.552,0,1-0.447,1-1v-78c0-0.553-0.448-1-1-1H11c-0.552,0-1,0.447-1,1v78C10,89.442,10.448,89.89,11,89.89  z M12,11.89h20.551v76H12V11.89z"/><path d="M22.275,31.014c3.301,0,5.986-2.686,5.986-5.987c0-3.301-2.686-5.986-5.986-5.986s-5.986,2.686-5.986,5.986  C16.289,28.328,18.975,31.014,22.275,31.014z M22.275,21.04c2.198,0,3.986,1.788,3.986,3.986s-1.788,3.987-3.986,3.987  s-3.986-1.789-3.986-3.987S20.077,21.04,22.275,21.04z"/><path d="M17.269,41h10.014c0.552,0,1-0.447,1-1s-0.448-1-1-1H17.269c-0.552,0-1,0.447-1,1S16.716,41,17.269,41z"/><path d="M17.269,35.886h10.014c0.552,0,1-0.447,1-1s-0.448-1-1-1H17.269c-0.552,0-1,0.447-1,1S16.716,35.886,17.269,35.886z"/><path d="M38.725,9.89c-0.552,0-1,0.447-1,1v78c0,0.553,0.448,1,1,1h22.551c0.552,0,1-0.447,1-1v-78c0-0.553-0.448-1-1-1H38.725z   M60.276,87.89H39.725v-76h20.551V87.89z"/><path d="M50,31.014c3.301,0,5.987-2.686,5.987-5.987c0-3.301-2.686-5.986-5.987-5.986c-3.301,0-5.986,2.686-5.986,5.986  C44.014,28.328,46.699,31.014,50,31.014z M50,21.04c2.198,0,3.987,1.788,3.987,3.986S52.198,29.014,50,29.014  s-3.986-1.789-3.986-3.987S47.802,21.04,50,21.04z"/><path d="M44.994,41h10.013c0.552,0,1-0.447,1-1s-0.448-1-1-1H44.994c-0.552,0-1,0.447-1,1S44.441,41,44.994,41z"/><path d="M44.994,35.886h10.013c0.552,0,1-0.447,1-1s-0.448-1-1-1H44.994c-0.552,0-1,0.447-1,1S44.441,35.886,44.994,35.886z"/><path d="M89,9.89H66.449c-0.552,0-1,0.447-1,1v78c0,0.553,0.448,1,1,1H89c0.552,0,1-0.447,1-1v-78C90,10.337,89.552,9.89,89,9.89z   M88,87.89H67.449v-76H88V87.89z"/><path d="M77.725,31.014c3.301,0,5.986-2.686,5.986-5.987c0-3.301-2.686-5.986-5.986-5.986s-5.986,2.686-5.986,5.986  C71.738,28.328,74.424,31.014,77.725,31.014z M77.725,21.04c2.198,0,3.986,1.788,3.986,3.986s-1.788,3.987-3.986,3.987  s-3.986-1.789-3.986-3.987S75.526,21.04,77.725,21.04z"/><path d="M72.718,41h10.013c0.552,0,1-0.447,1-1s-0.448-1-1-1H72.718c-0.552,0-1,0.447-1,1S72.166,41,72.718,41z"/><path d="M72.718,35.886h10.013c0.552,0,1-0.447,1-1s-0.448-1-1-1H72.718c-0.552,0-1,0.447-1,1S72.166,35.886,72.718,35.886z"/><text x="0" y="115" fill="#000000" font-size="5px" font-weight="bold" font-family="'Helvetica Neue', Helvetica, Arial-Unicode, Arial, Sans-serif">Created by Made</text><text x="0" y="120" fill="#000000" font-size="5px" font-weight="bold" font-family="'Helvetica Neue', Helvetica, Arial-Unicode, Arial, Sans-serif">from the Noun Project</text></svg>