<svg xmlns="http://www.w3.org/2000/svg" xmlns:xlink="http://www.w3.org/1999/xlink" version="1.1" x="0px" y="0px" viewBox="0 0 100 125" style="enable-background:new 0 0 100 100;" xml:space="preserve"><path d="M32.9345703,57.6279297h9.3251953v9.3251953c0,0.5522461,0.4477539,1,1,1h13.4804688c0.5522461,0,1-0.4477539,1-1  v-9.3251953h9.3251953c0.5522461,0,1-0.4477539,1-1V43.1474609c0-0.5522461-0.4477539-1-1-1h-9.3251953v-9.3256836  c0-0.5522461-0.4477539-1-1-1H43.2597656c-0.5522461,0-1,0.4477539-1,1v9.3256836h-9.3251953c-0.5522461,0-1,0.4477539-1,1  v13.4804688C31.9345703,57.1801758,32.3823242,57.6279297,32.9345703,57.6279297z M33.9345703,44.1474609h9.3251953  c0.5522461,0,1-0.4477539,1-1v-9.3256836h11.4804688v9.3256836c0,0.5522461,0.4477539,1,1,1h9.3251953v11.4804688h-9.3251953  c-0.5522461,0-1,0.4477539-1,1v9.3251953H44.2597656v-9.3251953c0-0.5522461-0.4477539-1-1-1h-9.3251953V44.1474609z"/><path d="M88.940918,21.534668c-3.4234009,0.2543335-6.9279175,0.4708252-10.4243164,0.6495972V10.9956055  c0-0.5522461-0.4477539-1-1-1H22.4848633c-0.5522461,0-1,0.4477539-1,1V21.741394  c-3.449585-0.2196655-6.9485474-0.473877-10.4169922-0.7628784c-0.5517578-0.0483398-1.0341797,0.3632812-1.0795898,0.9135742  c-0.0458984,0.550293,0.3632812,1.0336914,0.9135742,1.0795898c3.5238037,0.293457,7.0795898,0.5522461,10.5830078,0.774292  v65.366333c0,0.3125,0.1459961,0.6069336,0.3945312,0.7958984c0.2490234,0.1894531,0.5722656,0.2519531,0.8725586,0.1679688  l27.2485352-7.5507812l27.2490234,7.5507812c0.0878906,0.0244141,0.1777344,0.0361328,0.2670898,0.0361328  c0.2163086,0,0.4291992-0.0703125,0.6054688-0.2041016c0.2485352-0.1889648,0.3945312-0.4833984,0.3945312-0.7958984v-64.925415  c3.5460205-0.1801758,7.100708-0.3999023,10.5727539-0.6580811c0.5507812-0.0405273,0.9638672-0.5205078,0.9228516-1.0712891  S89.4926758,21.4936523,88.940918,21.534668z M76.5166016,87.7973633l-26.2490234-7.2734375  c-0.1748047-0.0478516-0.359375-0.0478516-0.5341797,0l-26.2485352,7.2734375V11.9956055h53.0317383V87.7973633z"/><text x="0" y="115" fill="#000000" font-size="5px" font-weight="bold" font-family="'Helvetica Neue', Helvetica, Arial-Unicode, Arial, Sans-serif">Created by Made</text><text x="0" y="120" fill="#000000" font-size="5px" font-weight="bold" font-family="'Helvetica Neue', Helvetica, Arial-Unicode, Arial, Sans-serif">from the Noun Project</text></svg>