<svg xmlns="http://www.w3.org/2000/svg" xmlns:xlink="http://www.w3.org/1999/xlink" version="1.1" x="0px" y="0px" viewBox="0 0 100 125" style="enable-background:new 0 0 100 100;" xml:space="preserve"><path d="M75.5791016,16.7636719C66.1191406,12.9199219,56.2324219,16.3173828,50,25.4160156  c-6.2294922-9.0986328-16.1162109-12.4970703-25.5761719-8.6523438c-8.90625,3.6201172-16.9638672,14.2089844-13.6123047,28.9023438  c3.0234375,13.2548828,13.4355469,23.171875,21.6376953,29.15625c8.8349609,6.4472656,16.8369141,9.7460938,17.1728516,9.8828125  c0.1210938,0.0498047,0.25,0.0742188,0.3779297,0.0742188s0.2568359-0.0244141,0.3779297-0.0742188  c0.3359375-0.1367188,8.3388672-3.4355469,17.1748047-9.8828125c8.2021484-5.984375,18.6142578-15.9013672,21.6357422-29.15625  C92.5400391,30.9736328,84.4833984,20.3847656,75.5791016,16.7636719z M87.2392578,45.2207031  C82.0341797,68.0507812,53.6220703,81.1123047,50,82.6923828c-3.625-1.5800781-32.0273438-14.6269531-37.2392578-37.4716797  c-3.0917969-13.5537109,4.2685547-23.2919922,12.4160156-26.6044922c2.4462891-0.9941406,4.7890625-1.4306641,7-1.4306641  c7.6132812,0,13.6650391,5.1777344,16.9697266,10.5917969C49.328125,28.0751953,49.6513672,28.2568359,50,28.2568359  s0.671875-0.1816406,0.8535156-0.4785156c4.265625-6.9892578,13.1083984-13.5839844,23.9716797-9.1611328  C82.9716797,21.9287109,90.3310547,31.6669922,87.2392578,45.2207031z"/><path d="M40.7939453,38.7529297c-1.5400391,0.3076172-2.65625,1.3740234-2.9130859,2.7832031  c-0.2792969,1.5214844,0.0224609,2.9052734,0.8945312,4.1123047c0.1953125,0.2705078,0.5009766,0.4140625,0.8115234,0.4140625  c0.203125,0,0.4082031-0.0615234,0.5849609-0.1894531c0.4472656-0.3242188,0.5478516-0.9492188,0.2246094-1.3964844  c-0.5556641-0.7685547-0.7304688-1.5888672-0.5488281-2.5810547c0.1103516-0.6025391,0.5986328-1.0332031,1.3388672-1.1816406  c0.5410156-0.1083984,0.8925781-0.6347656,0.7841797-1.1767578C41.8623047,38.9960938,41.3398438,38.6396484,40.7939453,38.7529297z  "/><path d="M60.4199219,33.0488281c-2.4365234-0.4882812-4.9541016-0.1777344-7.4882812,0.9238281  c-0.9589844,0.4160156-1.890625,0.6269531-2.8408203,0.6425781h-0.1816406  c-0.9501953-0.015625-1.8818359-0.2265625-2.8408203-0.6425781c-2.5341797-1.1015625-5.0527344-1.4121094-7.4882812-0.9238281  c-3.7705078,0.7548828-6.3896484,3.2216797-7.0039062,6.5869141c-0.0498047,0.2529297-1.1669922,6.2353516,2.1425781,9.9277344  c0.8955078,0.9990234,1.3955078,2.3203125,1.4101562,3.6894531L36.125,53.4443359  c-0.0761719,3.3916016-0.3066406,13.7128906,4.1220703,17.2460938c0.9619141,0.7685547,2.2001953,1.0947266,3.3857422,0.8964844  c1.1748047-0.1962891,2.1767578-0.8613281,2.8212891-1.8740234c2.2265625-3.5,1.8818359-10.4248047,1.8671875-10.6640625  c0-0.9042969,0.7529297-1.640625,1.6787109-1.640625s1.6787109,0.7363281,1.6796875,1.5869141  c-0.015625,0.2929688-0.3603516,7.2177734,1.8662109,10.7177734c0.6445312,1.0126953,1.6464844,1.6777344,2.8212891,1.8740234  c0.2285156,0.0380859,0.4580078,0.0566406,0.6875,0.0566406c0.9658203,0,1.9208984-0.3320312,2.6982422-0.953125  c4.4287109-3.5332031,4.1982422-13.8544922,4.1220703-17.2460938l-0.0039062-0.1591797  c0.0146484-1.4013672,0.5146484-2.7226562,1.4091797-3.7207031c3.3105469-3.6933594,2.1933594-9.6757812,2.1455078-9.9169922  C66.8095703,36.2705078,64.1904297,33.8037109,60.4199219,33.0488281z M63.7910156,48.2294922  c-1.21875,1.3603516-1.9003906,3.1484375-1.9199219,5.0664062l0.0048828,0.1933594  c0.1884766,8.4414062-0.9453125,13.703125-3.3710938,15.6386719c-0.5185547,0.4140625-1.1728516,0.5888672-1.8095703,0.4863281  c-0.6064453-0.1015625-1.1259766-0.4482422-1.4619141-0.9755859c-1.8818359-2.9580078-1.5595703-9.4707031-1.5546875-9.5898438  c0-2.0078125-1.6503906-3.640625-3.6787109-3.640625s-3.6787109,1.6328125-3.6777344,3.6943359  c0.0039062,0.0654297,0.3261719,6.578125-1.5556641,9.5361328c-0.3359375,0.5273438-0.8554688,0.8740234-1.4619141,0.9755859  c-0.6376953,0.1015625-1.2910156-0.0722656-1.8095703-0.4863281c-2.4257812-1.9355469-3.5595703-7.1972656-3.3710938-15.6386719  l0.0048828-0.2255859c-0.0195312-1.8857422-0.7011719-3.6738281-1.9208984-5.0351562  c-2.640625-2.9462891-1.6787109-8.1591797-1.6669922-8.2216797c0.4638672-2.5410156,2.4951172-4.4091797,5.4316406-4.9970703  c2.0576172-0.4130859,4.1162109-0.1503906,6.2988281,0.796875c1.1591797,0.5029297,2.3388672,0.7734375,3.5136719,0.8056641  c0.0585938,0.0058594,0.125,0.0029297,0.1875,0.0039062c0.0195312,0,0.0351562,0,0.0546875,0  c0.0615234,0,0.125,0.0039062,0.1884766-0.0039062c1.1738281-0.0322266,2.3535156-0.3027344,3.5126953-0.8056641  c2.1816406-0.9472656,4.2392578-1.2109375,6.2988281-0.796875c2.9365234,0.5878906,4.9677734,2.4560547,5.4335938,5.0068359  C65.4707031,40.0693359,66.4326172,45.2822266,63.7910156,48.2294922z"/><text x="0" y="115" fill="#000000" font-size="5px" font-weight="bold" font-family="'Helvetica Neue', Helvetica, Arial-Unicode, Arial, Sans-serif">Created by Made</text><text x="0" y="120" fill="#000000" font-size="5px" font-weight="bold" font-family="'Helvetica Neue', Helvetica, Arial-Unicode, Arial, Sans-serif">from the Noun Project</text></svg>