<svg xmlns="http://www.w3.org/2000/svg" xmlns:xlink="http://www.w3.org/1999/xlink" version="1.1" x="0px" y="0px" viewBox="0 0 100 125" enable-background="new 0 0 100 100" xml:space="preserve"><g><g><path fill="#000000" d="M94,80H6c-0.829,0-1.5-0.671-1.5-1.5v-4C4.5,73.671,5.171,73,6,73h88c0.829,0,1.5,0.671,1.5,1.5v4    C95.5,79.329,94.829,80,94,80z M7.5,77h85v-1h-85V77z"/></g><g><path fill="#000000" d="M24,76H10c-0.829,0-1.5-0.671-1.5-1.5V51.817c0-0.681,0.459-1.277,1.117-1.45l14-3.693    c0.45-0.119,0.93-0.022,1.298,0.262c0.369,0.284,0.584,0.723,0.584,1.188V74.5C25.5,75.329,24.829,76,24,76z M11.5,73h11V50.071    l-11,2.902V73z"/></g><g><path fill="#000000" d="M90,76H76c-0.829,0-1.5-0.671-1.5-1.5V48.124c0-0.465,0.216-0.904,0.584-1.188    c0.369-0.284,0.847-0.381,1.298-0.262l14,3.693c0.658,0.173,1.117,0.769,1.117,1.45V74.5C91.5,75.329,90.829,76,90,76z M77.5,73    h11V52.973l-11-2.902V73z"/></g><g><path fill="#000000" d="M57.5,37h-15c-0.829,0-1.5-0.671-1.5-1.5v-14c0-0.829,0.671-1.5,1.5-1.5h15c0.829,0,1.5,0.671,1.5,1.5v14    C59,36.329,58.329,37,57.5,37z M44,34h12V23H44V34z"/></g><g><path fill="#000000" d="M67,45h-4c-0.829,0-1.5-0.671-1.5-1.5v-4c0-0.829,0.671-1.5,1.5-1.5h4c0.829,0,1.5,0.671,1.5,1.5v4    C68.5,44.329,67.829,45,67,45z M64.5,42h1v-1h-1V42z"/></g><g><path fill="#000000" d="M57,45h-4c-0.829,0-1.5-0.671-1.5-1.5v-4c0-0.829,0.671-1.5,1.5-1.5h4c0.829,0,1.5,0.671,1.5,1.5v4    C58.5,44.329,57.829,45,57,45z M54.5,42h1v-1h-1V42z"/></g><g><path fill="#000000" d="M46,45h-4c-0.829,0-1.5-0.671-1.5-1.5v-4c0-0.829,0.671-1.5,1.5-1.5h4c0.829,0,1.5,0.671,1.5,1.5v4    C47.5,44.329,46.829,45,46,45z M43.5,42h1v-1h-1V42z"/></g><g><path fill="#000000" d="M36,45h-4c-0.829,0-1.5-0.671-1.5-1.5v-4c0-0.829,0.671-1.5,1.5-1.5h4c0.829,0,1.5,0.671,1.5,1.5v4    C37.5,44.329,36.829,45,36,45z M33.5,42h1v-1h-1V42z"/></g><g><path fill="#000000" d="M67,54h-4c-0.829,0-1.5-0.671-1.5-1.5v-4c0-0.829,0.671-1.5,1.5-1.5h4c0.829,0,1.5,0.671,1.5,1.5v4    C68.5,53.329,67.829,54,67,54z M64.5,51h1v-1h-1V51z"/></g><g><path fill="#000000" d="M57,54h-4c-0.829,0-1.5-0.671-1.5-1.5v-4c0-0.829,0.671-1.5,1.5-1.5h4c0.829,0,1.5,0.671,1.5,1.5v4    C58.5,53.329,57.829,54,57,54z M54.5,51h1v-1h-1V51z"/></g><g><path fill="#000000" d="M46,54h-4c-0.829,0-1.5-0.671-1.5-1.5v-4c0-0.829,0.671-1.5,1.5-1.5h4c0.829,0,1.5,0.671,1.5,1.5v4    C47.5,53.329,46.829,54,46,54z M43.5,51h1v-1h-1V51z"/></g><g><path fill="#000000" d="M36,54h-4c-0.829,0-1.5-0.671-1.5-1.5v-4c0-0.829,0.671-1.5,1.5-1.5h4c0.829,0,1.5,0.671,1.5,1.5v4    C37.5,53.329,36.829,54,36,54z M33.5,51h1v-1h-1V51z"/></g><g><g><path fill="#000000" d="M85,71h-4c-0.829,0-1.5-0.671-1.5-1.5v-4c0-0.829,0.671-1.5,1.5-1.5h4c0.829,0,1.5,0.671,1.5,1.5v4     C86.5,70.329,85.829,71,85,71z M82.5,68h1v-1h-1V68z"/></g><g><path fill="#000000" d="M85,61h-4c-0.829,0-1.5-0.671-1.5-1.5v-4c0-0.829,0.671-1.5,1.5-1.5h4c0.829,0,1.5,0.671,1.5,1.5v4     C86.5,60.329,85.829,61,85,61z M82.5,58h1v-1h-1V58z"/></g></g><g><g><path fill="#000000" d="M19,71h-4c-0.829,0-1.5-0.671-1.5-1.5v-4c0-0.829,0.671-1.5,1.5-1.5h4c0.829,0,1.5,0.671,1.5,1.5v4     C20.5,70.329,19.829,71,19,71z M16.5,68h1v-1h-1V68z"/></g><g><path fill="#000000" d="M19,61h-4c-0.829,0-1.5-0.671-1.5-1.5v-4c0-0.829,0.671-1.5,1.5-1.5h4c0.829,0,1.5,0.671,1.5,1.5v4     C20.5,60.329,19.829,61,19,61z M16.5,58h1v-1h-1V58z"/></g></g><g><g><path fill="#000000" d="M50,33.565c-0.829,0-1.5-0.671-1.5-1.5v-7.131c0-0.829,0.671-1.5,1.5-1.5s1.5,0.671,1.5,1.5v7.131     C51.5,32.894,50.829,33.565,50,33.565z"/></g><g><path fill="#000000" d="M53.565,30h-7.131c-0.829,0-1.5-0.671-1.5-1.5s0.671-1.5,1.5-1.5h7.131c0.829,0,1.5,0.671,1.5,1.5     S54.394,30,53.565,30z"/></g></g><g><g><path fill="#000000" d="M39.762,67.5c-0.485,0-0.96-0.234-1.25-0.668c-0.459-0.689-0.273-1.621,0.416-2.08l5.541-3.693     c0.689-0.459,1.62-0.273,2.08,0.416c0.459,0.689,0.273,1.621-0.416,2.08l-5.541,3.693C40.337,67.418,40.048,67.5,39.762,67.5z"/></g><g><path fill="#000000" d="M39.762,71.193c-0.485,0-0.96-0.234-1.25-0.668c-0.459-0.689-0.273-1.621,0.416-2.08l5.541-3.693     c0.689-0.46,1.62-0.273,2.08,0.416c0.459,0.689,0.273,1.621-0.416,2.08l-5.541,3.693C40.337,71.112,40.048,71.193,39.762,71.193z     "/></g></g><g><g><path fill="#000000" d="M54.762,67.5c-0.485,0-0.96-0.234-1.25-0.668c-0.459-0.689-0.273-1.621,0.416-2.08l5.541-3.693     c0.69-0.459,1.621-0.273,2.08,0.416s0.273,1.621-0.416,2.08l-5.541,3.693C55.337,67.418,55.048,67.5,54.762,67.5z"/></g><g><path fill="#000000" d="M54.762,71.193c-0.485,0-0.96-0.234-1.25-0.668c-0.459-0.689-0.273-1.621,0.416-2.08l5.541-3.693     c0.69-0.46,1.621-0.273,2.08,0.416s0.273,1.621-0.416,2.08l-5.541,3.693C55.337,71.112,55.048,71.193,54.762,71.193z"/></g></g><g><path fill="#000000" d="M64.5,76h-29c-0.829,0-1.5-0.671-1.5-1.5v-17c0-0.829,0.671-1.5,1.5-1.5h29c0.829,0,1.5,0.671,1.5,1.5v17    C66,75.329,65.329,76,64.5,76z M37,73h26V59H37V73z"/></g><g><path fill="#000000" d="M50,76c-0.829,0-1.5-0.671-1.5-1.5v-17c0-0.829,0.671-1.5,1.5-1.5s1.5,0.671,1.5,1.5v17    C51.5,75.329,50.829,76,50,76z"/></g><g><path fill="#000000" d="M76,76H24c-0.829,0-1.5-0.671-1.5-1.5v-45c0-0.829,0.671-1.5,1.5-1.5h18c0.829,0,1.5,0.671,1.5,1.5    S42.829,31,42,31H25.5v42h49V31H58c-0.829,0-1.5-0.671-1.5-1.5S57.171,28,58,28h18c0.829,0,1.5,0.671,1.5,1.5v45    C77.5,75.329,76.829,76,76,76z"/></g></g><text x="0" y="115" fill="#000000" font-size="5px" font-weight="bold" font-family="'Helvetica Neue', Helvetica, Arial-Unicode, Arial, Sans-serif">Created by Linseed Studio</text><text x="0" y="120" fill="#000000" font-size="5px" font-weight="bold" font-family="'Helvetica Neue', Helvetica, Arial-Unicode, Arial, Sans-serif">from the Noun Project</text></svg>