<svg xmlns="http://www.w3.org/2000/svg" xmlns:xlink="http://www.w3.org/1999/xlink" version="1.1" x="0px" y="0px" viewBox="0 0 100 125" enable-background="new 0 0 100 100" xml:space="preserve"><g><g><path fill="#000000" d="M79.355,62.579c-0.213,0-0.424-0.05-0.615-0.145c-0.402-0.201-3.632-3.599-2.524-6.27l3.776-9.117    c1.02-2.461,4.964-2.695,5.745-2.717c0.382-0.009,0.744,0.135,1.011,0.402c0.033,0.033,3.281,3.324,2.168,6.012l-3.778,9.117    c-1.02,2.461-4.964,2.695-5.744,2.717C79.381,62.579,79.368,62.579,79.355,62.579z M85.188,47.125    c-1.266,0.142-2.487,0.571-2.654,0.975l-3.776,9.117c-0.171,0.411,0.38,1.562,1.186,2.567c1.281-0.141,2.484-0.565,2.654-0.976    l3.778-9.117C86.558,49.251,85.931,48.058,85.188,47.125z"/></g><g><path fill="#000000" d="M75.225,62.644c-0.352,0-0.704-0.134-0.973-0.403c-0.537-0.537-0.536-1.408,0.001-1.944    c0.974-0.973,1.51-2.267,1.51-3.645s-0.536-2.672-1.51-3.645c-0.974-0.975-2.269-1.511-3.647-1.511    c-1.376,0-2.67,0.537-3.644,1.51c-0.975,0.974-1.511,2.268-1.511,3.646s0.536,2.672,1.51,3.645    c0.537,0.537,0.538,1.407,0.001,1.945c-0.536,0.537-1.407,0.539-1.945,0.001c-1.494-1.492-2.317-3.478-2.317-5.591    s0.823-4.099,2.317-5.591c1.492-1.493,3.477-2.315,5.588-2.315c2.114,0,4.101,0.823,5.592,2.317    c1.492,1.491,2.315,3.476,2.315,5.589s-0.823,4.099-2.316,5.59C75.928,62.51,75.577,62.644,75.225,62.644z"/></g><g><path fill="#000000" d="M93.915,87.888h-5.921c-0.759,0-1.375-0.616-1.375-1.375V31.25c0-0.759,0.616-1.375,1.375-1.375h5.921    c0.759,0,1.375,0.616,1.375,1.375v55.263C95.29,87.272,94.674,87.888,93.915,87.888z M89.369,85.138h3.171V32.625h-3.171V85.138z"/></g><g><path fill="#000000" d="M87.994,87.888H62.335c-0.759,0-1.375-0.616-1.375-1.375V61.842c0-0.759,0.616-1.375,1.375-1.375h25.658    c0.759,0,1.375,0.616,1.375,1.375v24.671C89.369,87.272,88.753,87.888,87.994,87.888z M63.71,85.138h22.908V63.217H63.71V85.138z"/></g><g><path fill="#000000" d="M87.994,81.967H62.335c-0.759,0-1.375-0.616-1.375-1.375s0.616-1.375,1.375-1.375h25.658    c0.759,0,1.375,0.616,1.375,1.375S88.753,81.967,87.994,81.967z"/></g><g><path fill="#000000" d="M62.335,87.888H6.085c-0.759,0-1.375-0.616-1.375-1.375V58.881c0-0.126,0.017-0.25,0.05-0.369    c0.408-4.147,3.743-7.473,7.893-7.867c0.112-0.03,0.227-0.047,0.34-0.047h49.342c0.759,0,1.375,0.616,1.375,1.375v34.54    C63.71,87.272,63.095,87.888,62.335,87.888z M7.46,85.138h53.5v-31.79H13.225c-0.054,0.011-0.108,0.019-0.162,0.022    c-2.974,0.208-5.372,2.606-5.58,5.58c-0.004,0.058-0.012,0.116-0.023,0.172V85.138z"/></g><g><path fill="#000000" d="M54.441,87.888c-0.759,0-1.375-0.616-1.375-1.375v-6.908c0-0.759,0.616-1.375,1.375-1.375    s1.375,0.616,1.375,1.375v6.908C55.816,87.272,55.2,87.888,54.441,87.888z"/></g><g><path fill="#000000" d="M54.441,73.085c-0.759,0-1.375-0.616-1.375-1.375V51.974c0-0.759,0.616-1.375,1.375-1.375    s1.375,0.616,1.375,1.375V71.71C55.816,72.47,55.2,73.085,54.441,73.085z"/></g><g><g><path fill="#000000" d="M22.638,77.347c-0.352,0-0.704-0.134-0.972-0.403c-0.537-0.537-0.537-1.407,0-1.944l13.457-13.458     c0.537-0.537,1.407-0.537,1.944,0c0.537,0.537,0.537,1.407,0,1.944L23.61,76.944C23.341,77.213,22.99,77.347,22.638,77.347z"/></g><g><path fill="#000000" d="M29.366,77.347c-0.352,0-0.704-0.134-0.972-0.403c-0.537-0.537-0.537-1.407,0-1.944l13.457-13.458     c0.537-0.537,1.407-0.537,1.944,0c0.537,0.537,0.537,1.407,0,1.944L30.338,76.944C30.07,77.213,29.718,77.347,29.366,77.347z"/></g></g><g><path fill="#000000" d="M61.349,36.572H38.651c-0.759,0-1.375-0.616-1.375-1.375v-21.71c0-0.759,0.616-1.375,1.375-1.375h22.697    c0.759,0,1.375,0.616,1.375,1.375v21.71C62.724,35.957,62.108,36.572,61.349,36.572z M40.026,33.822h19.947v-18.96H40.026V33.822z    "/></g><g><g><path fill="#000000" d="M50.494,31.638c-0.759,0-1.375-0.616-1.375-1.375V18.421c0-0.759,0.616-1.375,1.375-1.375     s1.375,0.616,1.375,1.375v11.842C51.869,31.022,51.253,31.638,50.494,31.638z"/></g><g><path fill="#000000" d="M56.415,25.717H44.572c-0.759,0-1.375-0.616-1.375-1.375s0.616-1.375,1.375-1.375h11.842     c0.759,0,1.375,0.616,1.375,1.375S57.174,25.717,56.415,25.717z"/></g></g><g><path fill="#000000" d="M54.44,77.03c-0.36,0-0.72-0.14-0.97-0.4c-0.26-0.26-0.4-0.61-0.4-0.97c0-0.36,0.14-0.72,0.4-0.97    c0.51-0.51,1.43-0.52,1.94,0c0.26,0.25,0.41,0.61,0.41,0.97c0,0.36-0.15,0.71-0.41,0.97C55.16,76.89,54.8,77.03,54.44,77.03z"/></g></g><text x="0" y="115" fill="#000000" font-size="5px" font-weight="bold" font-family="'Helvetica Neue', Helvetica, Arial-Unicode, Arial, Sans-serif">Created by Linseed Studio</text><text x="0" y="120" fill="#000000" font-size="5px" font-weight="bold" font-family="'Helvetica Neue', Helvetica, Arial-Unicode, Arial, Sans-serif">from the Noun Project</text></svg>