<svg xmlns="http://www.w3.org/2000/svg" xmlns:xlink="http://www.w3.org/1999/xlink" version="1.1" x="0px" y="0px" viewBox="0 0 100 125" style="enable-background:new 0 0 100 100;" xml:space="preserve"><path d="M11.0161133,87.9995117c-0.5522461,0-1,0.4477539-1,1s0.4477539,1,1,1h78c0.5522461,0,1-0.4477539,1-1s-0.4477539-1-1-1  H77.987793v-8.3408203h7.2871094c1.6953125,0,3.074707-1.3793945,3.074707-3.074707v-5.456543c0-0.5522461-0.4477539-1-1-1  h-0.9257812V59.1303711c0-3.6513672-2.9707031-6.621582-6.6220703-6.621582h-5.6279297  c-3.6513672,0-6.6220703,2.9702148-6.6220703,6.621582v10.9970703h-0.9262695c-0.5522461,0-1,0.4477539-1,1v3.765625h-4.2363281  v-3.765625c0-0.5522461-0.4477539-1-1-1h-0.9262695V59.1303711c0-3.6513672-2.9702148-6.621582-6.621582-6.621582h-5.6279297  c-3.6513672,0-6.6220703,2.9702148-6.6220703,6.621582v10.9970703h-0.9262695c-0.5522461,0-1,0.4477539-1,1v3.765625h-4.2578125  v-3.765625c0-0.5522461-0.4477539-1-1-1H32.480957V59.1303711c0-3.6513672-2.9707031-6.621582-6.6220703-6.621582H20.230957  c-3.6513672,0-6.6220703,2.9702148-6.6220703,6.621582v10.9970703h-0.9257812c-0.5522461,0-1,0.4477539-1,1v5.456543  c0,1.6953125,1.3789062,3.074707,3.0742188,3.074707h7.2875977v8.3408203H11.0161133z M75.987793,87.9995117H51.0268555v-8.3408203  h7.2875977c1.5894775,0,2.8858643-1.217041,3.043457-2.765625h4.2988281c0.1575928,1.548584,1.4539795,2.765625,3.043457,2.765625  h7.2875977V87.9995117z M40.6650391,72.1274414h18.7241211v4.456543c0,0.5927734-0.4819336,1.074707-1.074707,1.074707H41.7392578  c-0.5922852,0-1.0742188-0.4819336-1.0742188-1.074707V72.1274414z M86.3496094,76.5839844  c0,0.5927734-0.4819336,1.074707-1.074707,1.074707h-16.574707c-0.5927734,0-1.074707-0.4819336-1.074707-1.074707v-4.456543  h18.7241211V76.5839844z M69.5517578,59.1303711c0-2.5483398,2.0732422-4.621582,4.6220703-4.621582h5.6279297  c2.5488281,0,4.6220703,2.0732422,4.6220703,4.621582v10.9970703H69.5517578V59.1303711z M42.5913086,59.1303711  c0-2.5483398,2.0732422-4.621582,4.6220703-4.621582h5.6279297c2.5483398,0,4.621582,2.0732422,4.621582,4.621582v10.9970703  h-14.871582V59.1303711z M15.6088867,59.1303711c0-2.5483398,2.0732422-4.621582,4.6220703-4.621582h5.6279297  c2.5488281,0,4.6220703,2.0732422,4.6220703,4.621582v10.9970703H15.6088867V59.1303711z M13.6831055,76.5839844v-4.456543  h18.7241211v4.456543c0,0.5927734-0.4819336,1.074707-1.074707,1.074707H14.7573242  C14.1650391,77.6586914,13.6831055,77.1767578,13.6831055,76.5839844z M24.0449219,79.6586914h7.2875977  c1.5894775,0,2.8858643-1.217041,3.043457-2.765625h4.3203125c0.1575317,1.548584,1.4534912,2.765625,3.0429688,2.765625h7.2875977  v8.3408203H24.0449219V79.6586914z"/><path d="M10.9838867,47.4345703h77.9960938c0.5522461,0,1-0.4477539,1-1V15.625c0-0.5522461-0.4477539-1-1-1h-8.125v-3.6245117  c0-0.5522461-0.4477539-1-1-1s-1,0.4477539-1,1V14.625H21.0214844v-3.6245117c0-0.5522461-0.4477539-1-1-1s-1,0.4477539-1,1V14.625  h-8.0375977c-0.5522461,0-1,0.4477539-1,1v30.8095703C9.9838867,46.9868164,10.4316406,47.4345703,10.9838867,47.4345703z   M11.9838867,16.625h75.9960938v28.8095703H11.9838867V16.625z"/><path d="M46.8730469,28.7216797h21.9936523c0.5522461,0,1-0.4477539,1-1s-0.4477539-1-1-1H46.8730469c-0.5522461,0-1,0.4477539-1,1  S46.3208008,28.7216797,46.8730469,28.7216797z"/><path d="M79.7387695,33.3378906H46.8730469c-0.5522461,0-1,0.4477539-1,1s0.4477539,1,1,1h32.8657227c0.5522461,0,1-0.4477539,1-1  S80.2910156,33.3378906,79.7387695,33.3378906z"/><path d="M38.0932617,26.0458984h-4.1508789v-4.0170898c0-0.5522461-0.4477539-1-1-1H25.144043c-0.5522461,0-1,0.4477539-1,1  v4.0170898h-3.8828125c-0.5522461,0-1,0.4477539-1,1v7.7983398c0,0.5522461,0.4477539,1,1,1h3.8828125v4.0170898  c0,0.5522461,0.4477539,1,1,1h7.7983398c0.5522461,0,1-0.4477539,1-1v-4.0170898h4.1508789c0.5522461,0,1-0.4477539,1-1v-7.7983398  C39.0932617,26.4936523,38.6455078,26.0458984,38.0932617,26.0458984z M37.0932617,33.8442383h-4.1508789  c-0.5522461,0-1,0.4477539-1,1v4.0170898H26.144043v-4.0170898c0-0.5522461-0.4477539-1-1-1h-3.8828125v-5.7983398h3.8828125  c0.5522461,0,1-0.4477539,1-1v-4.0170898h5.7983398v4.0170898c0,0.5522461,0.4477539,1,1,1h4.1508789V33.8442383z"/><text x="0" y="115" fill="#000000" font-size="5px" font-weight="bold" font-family="'Helvetica Neue', Helvetica, Arial-Unicode, Arial, Sans-serif">Created by Made</text><text x="0" y="120" fill="#000000" font-size="5px" font-weight="bold" font-family="'Helvetica Neue', Helvetica, Arial-Unicode, Arial, Sans-serif">from the Noun Project</text></svg>