<svg xmlns="http://www.w3.org/2000/svg" xmlns:xlink="http://www.w3.org/1999/xlink" version="1.1" x="0px" y="0px" viewBox="0 0 100 125" style="enable-background:new 0 0 100 100;" xml:space="preserve"><path d="M71.4423828,62.6757812H68.717041c0.6967773-1.4382935,1.2536621-2.9691772,1.6130371-4.5966797  c1.7910156-8.1103516-2.5859375-13.8505859-7.4101562-15.7529297C58.1738281,40.4589844,53.2451172,42.1074219,50,46.5322266  c-3.2460938-4.4248047-8.1787109-6.0742188-12.9208984-4.2060547c-4.8242188,1.9023438-9.2001953,7.6425781-7.4091797,15.7529297  c0.3591309,1.6275024,0.9158936,3.1583862,1.6125488,4.5966797h-2.7248535c-0.5527344,0-1,0.4472656-1,1s0.4472656,1,1,1h3.8205566  c5.5891113,9.1586304,16.6652832,13.9291382,17.2331543,14.1689453c0.1240234,0.0517578,0.2568359,0.078125,0.3886719,0.078125  s0.2646484-0.0263672,0.3886719-0.078125c0.5678711-0.2398071,11.6428223-5.0103149,17.2324219-14.1689453h3.8212891  c0.5527344,0,1-0.4472656,1-1S71.9951172,62.6757812,71.4423828,62.6757812z M31.6230469,57.6474609  C30.0849609,50.6826172,33.7529297,45.7880859,37.8125,44.1875c0.9677734-0.3818359,2.0498047-0.609375,3.1777344-0.609375  c2.7871094,0,5.8505859,1.3896484,8.1484375,5.2783203c0.3613281,0.609375,1.3613281,0.609375,1.7226562,0  c3.2255859-5.4609375,7.9638672-5.9941406,11.3251953-4.6689453c4.0595703,1.5996094,7.7285156,6.4951172,6.1904297,13.4599609  c-0.3962402,1.7941895-1.0655518,3.4709473-1.9196777,5.0283203H55.6210938l-4.7714844-7.6728516  c-0.3652344-0.5859375-1.3339844-0.5859375-1.6992188,0l-4.7714844,7.6728516H33.5400391  C32.6873779,61.1187744,32.019043,59.4420166,31.6230469,57.6474609z M50,76.8271484  c-1.9039307-0.8799438-10.3242188-5.0588379-15.2194824-12.1513672h10.1540527c0.3457031,0,0.6669922-0.1787109,0.8496094-0.4716797  L50,57.4248047l4.2158203,6.7792969c0.1826172,0.2929688,0.5039062,0.4716797,0.8496094,0.4716797h10.1500244  C60.3193359,71.7608643,51.9018555,75.9459229,50,76.8271484z"/><path d="M84.2861328,28.1669922h-2.7480469v-12.09375C81.5380859,12.7246094,78.8134766,10,75.4648438,10H16.0732422  C12.7246094,10,10,12.7246094,10,16.0732422v68.2128906C10,87.4365234,12.5634766,90,15.7138672,90h68.5722656  C87.4365234,90,90,87.4365234,90,84.2861328V33.8808594C90,30.7304688,87.4365234,28.1669922,84.2861328,28.1669922z M12,16.0732422  C12,13.8271484,13.8271484,12,16.0732422,12h59.3916016c2.2460938,0,4.0732422,1.8271484,4.0732422,4.0732422v12.09375h-5.4267578  v-6.3027344c0-1.8505859-1.5048828-3.3554688-3.3554688-3.3554688h-8.8173828c-0.9177246,0-1.7491455,0.371521-2.3554688,0.9703369  c-0.6063232-0.5988159-1.4377441-0.9703369-2.3554688-0.9703369h-8.8173828c-0.9178467,0-1.7493896,0.3716431-2.3557129,0.9705811  c-0.6065674-0.598938-1.4383545-0.9705811-2.3562012-0.9705811h-8.8173828c-0.9177246,0-1.7491455,0.371521-2.3554688,0.9703369  c-0.6063232-0.5988159-1.4377441-0.9703369-2.3554688-0.9703369h-8.8173828c-1.8505859,0-3.3554688,1.5048828-3.3554688,3.3554688  v6.3027344H12V16.0732422z M31.5253906,28.1669922H19.9970703v-6.3027344c0-0.7470703,0.6083984-1.3554688,1.3554688-1.3554688  h8.8173828c0.7470703,0,1.3554688,0.6083984,1.3554688,1.3554688V28.1669922z M33.5253906,21.8642578  c0-0.7470703,0.6083984-1.3554688,1.3554688-1.3554688h8.8173828c0.7480469,0,1.3564453,0.6083984,1.3564453,1.3554688v6.3027344  H33.5253906V21.8642578z M47.0546875,21.8642578c0-0.7470703,0.6083984-1.3554688,1.3554688-1.3554688h8.8173828  c0.7470703,0,1.3554688,0.6083984,1.3554688,1.3554688v6.3027344H47.0546875V21.8642578z M60.5830078,21.8642578  c0-0.7470703,0.6083984-1.3554688,1.3554688-1.3554688h8.8173828c0.7470703,0,1.3554688,0.6083984,1.3554688,1.3554688v6.3027344  H60.5830078V21.8642578z M88,84.2861328C88,86.3339844,86.3339844,88,84.2861328,88H15.7138672  C13.6660156,88,12,86.3339844,12,84.2861328V30.1669922h72.2861328C86.3339844,30.1669922,88,31.8330078,88,33.8808594V84.2861328z"/><text x="0" y="115" fill="#000000" font-size="5px" font-weight="bold" font-family="'Helvetica Neue', Helvetica, Arial-Unicode, Arial, Sans-serif">Created by Made</text><text x="0" y="120" fill="#000000" font-size="5px" font-weight="bold" font-family="'Helvetica Neue', Helvetica, Arial-Unicode, Arial, Sans-serif">from the Noun Project</text></svg>