<svg xmlns="http://www.w3.org/2000/svg" xmlns:xlink="http://www.w3.org/1999/xlink" version="1.1" x="0px" y="0px" viewBox="0 0 100 125" style="enable-background:new 0 0 100 100;" xml:space="preserve"><path d="M10.091,57.915c-0.686,4.731,2.605,9.139,7.336,9.825c0.422,0.061,0.844,0.091,1.263,0.091c1.856,0,3.655-0.594,5.169-1.724  c1.855-1.386,3.061-3.411,3.393-5.703c0.333-2.292-0.248-4.576-1.633-6.432c-1.385-1.855-3.411-3.061-5.703-3.394  c-2.293-0.33-4.576,0.248-6.432,1.633C11.629,53.597,10.423,55.623,10.091,57.915z M22.662,64.504  c-1.428,1.066-3.188,1.512-4.948,1.256c-3.302-0.479-5.684-3.317-5.705-6.557l13.039,1.891  C24.639,62.451,23.819,63.641,22.662,64.504z M18.667,52.488c0.317,0,0.639,0.023,0.962,0.07c1.763,0.256,3.321,1.183,4.387,2.611  c0.863,1.156,1.312,2.529,1.318,3.946l-13.03-1.89C13.154,54.429,15.742,52.488,18.667,52.488z"/><path d="M60.466,89.69c0.752,0.203,1.516,0.304,2.275,0.304c1.496,0,2.974-0.391,4.306-1.156c4.146-2.382,5.58-7.693,3.198-11.837  c-2.382-4.146-7.694-5.579-11.837-3.198c-2.008,1.154-3.447,3.021-4.051,5.256c-0.604,2.236-0.301,4.573,0.853,6.581  C56.363,87.647,58.23,89.086,60.466,89.69z M69.167,83.059c-0.464,1.72-1.571,3.156-3.116,4.044  c-1.545,0.887-3.343,1.12-5.063,0.656c-1.393-0.377-2.595-1.18-3.475-2.29l11.425-6.565C69.454,80.224,69.543,81.666,69.167,83.059z   M56.288,79.58c0.464-1.72,1.571-3.156,3.116-4.043c1.025-0.589,2.162-0.89,3.313-0.89c0.583,0,1.171,0.078,1.75,0.234  c1.393,0.376,2.594,1.179,3.475,2.29l-11.424,6.565C56,82.415,55.911,80.973,56.288,79.58z"/><path d="M51.315,10.419c-4.546-1.481-9.449,1.01-10.931,5.556c-1.481,4.545,1.011,9.449,5.556,10.931  c0.884,0.289,1.792,0.432,2.696,0.432c1.347,0,2.685-0.318,3.92-0.946c2.064-1.049,3.597-2.84,4.314-5.042s0.535-4.551-0.514-6.616  C55.308,12.669,53.517,11.137,51.315,10.419z M51.65,24.609c-1.588,0.807-3.395,0.949-5.09,0.396  c-3.173-1.035-5.037-4.237-4.505-7.433l12.526,4.083C53.948,22.923,52.937,23.955,51.65,24.609z M55.2,19.754L42.673,15.67  c1.141-2.272,3.473-3.678,5.959-3.678c0.684,0,1.378,0.106,2.062,0.329C53.868,13.355,55.733,16.557,55.2,19.754z"/><path d="M78.717,65.173c0.884,0.289,1.792,0.432,2.697,0.432c1.347,0,2.684-0.318,3.919-0.946c2.064-1.049,3.597-2.84,4.314-5.042  c1.482-4.545-1.01-9.449-5.556-10.931c-4.546-1.481-9.449,1.01-10.931,5.556S74.172,63.691,78.717,65.173z M78.382,50.984  c0.951-0.483,1.979-0.727,3.016-0.727c0.695,0,1.394,0.11,2.074,0.332c1.694,0.552,3.071,1.731,3.879,3.319  c0.654,1.287,0.862,2.716,0.627,4.114l-12.528-4.084C76.085,52.67,77.096,51.638,78.382,50.984z M74.832,55.84l12.526,4.083  c-0.634,1.267-1.645,2.3-2.931,2.953c-1.589,0.807-3.396,0.948-5.09,0.396C76.164,62.237,74.301,59.036,74.832,55.84z"/><path d="M21.521,43.802c1.133,0,2.242-0.327,3.214-0.959c1.324-0.862,2.232-2.188,2.559-3.732l3.736-17.677  c0.674-3.19-1.373-6.333-4.563-7.008c-3.194-0.671-6.334,1.372-7.008,4.563l-3.736,17.676c-0.674,3.19,1.373,6.333,4.562,7.008  C20.697,43.759,21.11,43.802,21.521,43.802z M21.417,19.401c0.216-1.022,0.817-1.9,1.693-2.47c0.877-0.57,1.921-0.765,2.944-0.549  c1.022,0.216,1.9,0.817,2.47,1.693c0.57,0.876,0.766,1.921,0.549,2.944l-1.661,7.86l-7.657-1.618L21.417,19.401z M17.681,37.077  l1.661-7.859l7.657,1.618l-1.661,7.86c-0.216,1.022-0.817,1.899-1.693,2.47c-0.875,0.57-1.919,0.767-2.944,0.549  C18.589,41.269,17.234,39.188,17.681,37.077z"/><path d="M76.578,35.821c0.979,2.2,3.145,3.509,5.411,3.509c0.802,0,1.616-0.164,2.395-0.51c2.979-1.325,4.324-4.827,2.999-7.806  l-7.344-16.508c-1.325-2.979-4.827-4.324-7.806-2.999c-1.443,0.642-2.55,1.808-3.117,3.282c-0.566,1.475-0.524,3.081,0.118,4.524  L76.578,35.821L76.578,35.821z M70.984,15.506c0.375-0.976,1.107-1.747,2.062-2.172c1.971-0.876,4.289,0.013,5.166,1.984l3.265,7.34  l-7.15,3.181l-3.265-7.34C70.637,17.545,70.609,16.482,70.984,15.506z M75.14,27.667l7.15-3.181l3.266,7.341  c0.877,1.971-0.013,4.288-1.984,5.166c-1.972,0.877-4.289-0.014-5.166-1.985v0L75.14,27.667z"/><path d="M65.743,42.999c0.476-1.506,0.336-3.107-0.393-4.509c-1.504-2.893-5.081-4.022-7.974-2.519l-16.03,8.333  c-1.401,0.729-2.435,1.959-2.911,3.465c-0.476,1.506-0.336,3.107,0.392,4.509c1.052,2.024,3.119,3.185,5.256,3.185  c0.917,0,1.849-0.214,2.718-0.666l16.03-8.333C64.233,45.735,65.267,44.505,65.743,42.999z M45.878,53.023  c-1.915,0.995-4.281,0.247-5.277-1.667c-0.482-0.927-0.574-1.987-0.259-2.983s0.999-1.811,1.927-2.293l7.128-3.705l3.61,6.944  L45.878,53.023z M54.781,48.395l-3.61-6.944l7.128-3.706c0.565-0.294,1.18-0.443,1.8-0.443c0.396,0,0.794,0.061,1.183,0.184  c0.997,0.315,1.811,0.999,2.293,1.926c0.482,0.927,0.574,1.987,0.26,2.984c-0.315,0.997-0.999,1.811-1.927,2.293L54.781,48.395z"/><path d="M27.041,88.859c1.027,0.755,2.241,1.151,3.492,1.151c0.299,0,0.601-0.023,0.903-0.069c1.561-0.238,2.937-1.07,3.873-2.342  l10.706-14.554c1.932-2.626,1.367-6.335-1.259-8.267c-2.625-1.931-6.335-1.366-8.267,1.259L25.782,80.592  c-0.936,1.272-1.32,2.833-1.083,4.395C24.937,86.548,25.769,87.923,27.041,88.859z M38.099,67.224  c0.766-1.042,1.954-1.593,3.157-1.593c0.805,0,1.617,0.247,2.313,0.759c1.738,1.278,2.112,3.733,0.833,5.471l-4.76,6.471  l-6.304-4.637L38.099,67.224z M27.393,81.778l4.76-6.471l6.304,4.637l-4.76,6.471c-0.619,0.842-1.529,1.392-2.562,1.55  c-1.032,0.158-2.066-0.097-2.908-0.717c-0.842-0.619-1.392-1.529-1.55-2.562C26.519,83.652,26.773,82.62,27.393,81.778z"/><text x="0" y="115" fill="#000000" font-size="5px" font-weight="bold" font-family="'Helvetica Neue', Helvetica, Arial-Unicode, Arial, Sans-serif">Created by Made</text><text x="0" y="120" fill="#000000" font-size="5px" font-weight="bold" font-family="'Helvetica Neue', Helvetica, Arial-Unicode, Arial, Sans-serif">from the Noun Project</text></svg>