<svg xmlns="http://www.w3.org/2000/svg" xmlns:xlink="http://www.w3.org/1999/xlink" version="1.1" x="0px" y="0px" viewBox="0 0 100 125" style="enable-background:new 0 0 100 100;" xml:space="preserve"><path d="M54.346,22.508c-4.252-4.252-9.905-6.594-15.919-6.594c-6.015,0-11.668,2.342-15.92,6.594s-6.594,9.905-6.594,15.919  s2.342,11.667,6.594,15.919s9.905,6.594,15.92,6.594c6.014,0,11.667-2.342,15.919-6.594s6.594-9.905,6.594-15.919  S58.598,26.76,54.346,22.508z M52.932,52.932c-7.999,7.999-21.014,7.997-29.011,0c-7.998-7.998-7.998-21.012,0-29.01  c3.999-3.999,9.252-5.999,14.506-5.999c5.253,0,10.506,2,14.505,5.999C60.93,31.92,60.93,44.934,52.932,52.932z"/><path d="M69.479,59.26c-1.062-1.061-2.583-1.367-3.927-0.951l-3.737-3.737c7.648-11.071,6.557-26.399-3.29-36.245  C53.158,12.957,46.02,10,38.427,10c-7.594,0-14.732,2.957-20.101,8.326c-11.084,11.083-11.084,29.118,0,40.201  c5.542,5.542,12.821,8.312,20.101,8.312c5.654,0,11.304-1.68,16.144-5.024l3.737,3.737c-0.415,1.344-0.11,2.864,0.952,3.926  l18.411,18.411c1.409,1.409,3.26,2.113,5.109,2.113c1.851,0,3.701-0.704,5.11-2.113C89.251,86.531,90,84.717,90,82.781  s-0.749-3.75-2.109-5.109L69.479,59.26z M19.74,57.113C9.437,46.81,9.437,30.044,19.74,19.74C24.731,14.749,31.367,12,38.427,12  c7.059,0,13.694,2.749,18.686,7.74c10.304,10.304,10.304,27.069,0,37.373C46.81,67.415,30.043,67.416,19.74,57.113z M58.526,58.527  c0.747-0.747,1.439-1.527,2.085-2.333l3.198,3.198l-4.417,4.417l-3.198-3.199C57,59.966,57.78,59.274,58.526,58.527z M86.477,86.477  c-2.038,2.038-5.355,2.037-7.392,0L60.674,68.065c-0.746-0.747-0.746-1.961,0-2.708l4.688-4.688c0.372-0.37,0.861-0.555,1.349-0.555  c0.49,0,0.981,0.187,1.354,0.56l18.411,18.412C87.459,80.068,88,81.381,88,82.781S87.459,85.494,86.477,86.477z"/><path d="M28.504,38.674c-0.391-0.391-1.023-0.391-1.414,0s-0.391,1.023,0,1.414l7.524,7.524c0.195,0.195,0.451,0.293,0.707,0.293  s0.512-0.098,0.707-0.293c0.391-0.391,0.391-1.023,0-1.414L28.504,38.674z"/><path d="M26.532,43.056c-0.391-0.391-1.023-0.391-1.414,0s-0.391,1.023,0,1.414l5.246,5.246c0.195,0.195,0.451,0.293,0.707,0.293  s0.512-0.098,0.707-0.293c0.391-0.391,0.391-1.023,0-1.414L26.532,43.056z"/><text x="0" y="115" fill="#000000" font-size="5px" font-weight="bold" font-family="'Helvetica Neue', Helvetica, Arial-Unicode, Arial, Sans-serif">Created by Made</text><text x="0" y="120" fill="#000000" font-size="5px" font-weight="bold" font-family="'Helvetica Neue', Helvetica, Arial-Unicode, Arial, Sans-serif">from the Noun Project</text></svg>