<svg xmlns="http://www.w3.org/2000/svg" xmlns:xlink="http://www.w3.org/1999/xlink" version="1.1" x="0px" y="0px" viewBox="0 0 100 125" style="enable-background:new 0 0 100 100;" xml:space="preserve"><style type="text/css">
	.st0{fill:none;stroke:#000000;stroke-width:2;stroke-linecap:round;stroke-miterlimit:10;}
	.st1{fill:none;stroke:#000000;stroke-width:2;stroke-linecap:round;stroke-linejoin:round;stroke-miterlimit:10;}
	.st2{stroke:#000000;stroke-width:2;stroke-linecap:round;stroke-linejoin:round;stroke-miterlimit:10;}
	.st3{fill:none;stroke:#000000;stroke-width:2;stroke-miterlimit:10;}
</style><path d="M23.5,88.6h51.3c0.6,0,1-0.4,1-1V71.7c0-11.6-8.5-21.4-18.5-21.4h-0.3v-0.9c7.5,0,11.1-3.5,11.3-3.7  c0.2-0.2,0.3-0.6,0.3-0.9c-0.1-0.3-0.3-0.6-0.6-0.7c-3.2-1.3-4.7-6.8-4.8-7.3c0.5-1.5,0.8-3.1,0.8-4.7c0-3.3-1.1-6.5-3.1-9.1V11.3  c0-0.6-0.4-1-1-1H38.2c-0.6,0-1,0.4-1,1V23c-2,2.6-3.1,5.8-3.1,9.1c0,1.7,0.3,3.4,0.9,5c-0.5,1.8-2.1,6-4.7,7.1  c-0.3,0.1-0.5,0.4-0.6,0.7c-0.1,0.3,0,0.7,0.3,0.9c0.2,0.2,3.8,3.7,11.3,3.7v0.9H41c-10,0-18.5,9.8-18.5,21.4v15.9  C22.5,88.1,22.9,88.6,23.5,88.6z M58.7,63.5c0.9,0,1.6,0.7,1.6,1.6s-0.7,1.6-1.6,1.6s-1.6-0.7-1.6-1.6S57.8,63.5,58.7,63.5z   M36.1,32.6c2.1-0.4,9.2-1.9,15.2-5.5c1.4,1.5,5.5,5.4,10.5,5.8c-0.4,5.2-3.8,9.7-8.8,11.4c-4.3,1.1-8.1,0-8.1,0  C39.8,42.6,36.4,38,36.1,32.6z M43.2,45.8c0.4,0.2,0.8,0.3,1.1,0.4c0.1,0,2,0.6,4.6,0.6c1.4,0,2.9-0.1,4.6-0.6c0,0,0,0,0.1,0  c0.4-0.1,0.9-0.3,1.3-0.5v5l-0.2,0.1c-3.5,2.1-7.8,2.1-11.3,0l-0.2-0.1V45.8z M65.7,45.1c-1.4,0.9-4.4,2.3-8.8,2.3v-2.7  c2.1-1.3,3.8-3.1,5-5.2C62.6,41.3,63.8,43.7,65.7,45.1z M61.8,30.9c-3.9-0.4-7.4-3.4-8.8-4.9c0.9-0.6,1.7-1.3,2.5-2c0,0,0,0,0,0h3.5  C60.7,26,61.6,28.4,61.8,30.9z M58.8,12.3V22H39.2v-9.8H58.8z M38.9,24h13.5c-5.6,4.1-13.5,6-16.2,6.5C36.5,28.2,37.4,25.9,38.9,24z   M32.4,45.1c1.8-1.4,3-3.7,3.8-5.5c1.2,2.1,2.9,3.8,5,5.1v2.6C36.8,47.4,33.9,46,32.4,45.1z M24.5,71.7c0-9.2,6.2-17.4,13.8-19.1  v8.9c-4.4,0.5-7.9,4.3-7.9,8.8v5.1c0,0.6,0.4,1,1,1s1-0.4,1-1v-5.1c0-3.8,3.1-6.9,6.9-6.9s6.9,3.1,6.9,6.9v5.1c0,0.6,0.4,1,1,1  s1-0.4,1-1v-5.1c0-4.6-3.5-8.3-7.9-8.8v-9.2c0.2,0,0.5,0,0.7,0h1l0.5,0.3c2.1,1.2,4.3,1.8,6.6,1.8c2.3,0,4.6-0.6,6.7-1.9l0.4-0.3h1  c0.1,0,0.3,0,0.4,0v9.3c-1.5,0.4-2.6,1.8-2.6,3.4c0,2,1.6,3.6,3.6,3.6s3.6-1.6,3.6-3.6c0-1.6-1.1-3-2.6-3.4v-9.1  c7.7,1.5,14.1,9.8,14.1,19.1v14.9H24.5V71.7z"/><path d="M46.9,18.1h1.2v1.2c0,0.6,0.4,1,1,1s1-0.4,1-1v-1.2h1.2c0.6,0,1-0.4,1-1s-0.4-1-1-1h-1.2v-1.2c0-0.6-0.4-1-1-1s-1,0.4-1,1  v1.2h-1.2c-0.6,0-1,0.4-1,1S46.3,18.1,46.9,18.1z"/><text x="0" y="115" fill="#000000" font-size="5px" font-weight="bold" font-family="'Helvetica Neue', Helvetica, Arial-Unicode, Arial, Sans-serif">Created by Made</text><text x="0" y="120" fill="#000000" font-size="5px" font-weight="bold" font-family="'Helvetica Neue', Helvetica, Arial-Unicode, Arial, Sans-serif">from the Noun Project</text></svg>