<svg xmlns="http://www.w3.org/2000/svg" xmlns:xlink="http://www.w3.org/1999/xlink" version="1.1" x="0px" y="0px" viewBox="0 0 100 125" style="enable-background:new 0 0 100 100;" xml:space="preserve"><path d="M79.269,15.967H20.963c-0.553,0-1,0.448-1,1V51.75c0,0.552,0.447,1,1,1h58.306c0.553,0,1-0.448,1-1V16.967  C80.269,16.415,79.821,15.967,79.269,15.967z M78.269,50.75H21.963V17.967h56.306V50.75z"/><path d="M13.341,90h73.318c0.985,0,1.915-0.429,2.551-1.176c0.629-0.739,0.901-1.71,0.747-2.665l-4.635-28.695V15.276  c0-2.909-2.387-5.276-5.321-5.276H20.23c-2.935,0-5.321,2.367-5.321,5.276v42.183l-4.861,28.675  c-0.163,0.958,0.104,1.935,0.732,2.68C11.417,89.568,12.35,90,13.341,90z M16.909,15.276c0-1.807,1.49-3.276,3.321-3.276h59.771  c1.831,0,3.321,1.47,3.321,3.276v41.269H16.909V15.276z M12.02,86.468l4.735-27.923h66.716l4.512,27.933  c0.062,0.381-0.043,0.753-0.295,1.049c-0.256,0.3-0.63,0.472-1.028,0.472H13.341c-0.4,0-0.776-0.174-1.032-0.476  C12.057,87.226,11.954,86.851,12.02,86.468z"/><path d="M18.702,81.833H81.36c0.286,0,0.56-0.123,0.749-0.337c0.189-0.215,0.278-0.5,0.243-0.785l-2.092-17  c-0.062-0.501-0.487-0.878-0.992-0.878H20.963c-0.501,0-0.925,0.371-0.991,0.868l-2.261,17c-0.038,0.286,0.049,0.574,0.239,0.791  C18.14,81.709,18.414,81.833,18.702,81.833z M20.708,73.333H34.3l-0.635,6.5H19.844L20.708,73.333z M51.031,71.333v-6.5h12.451  l0.635,6.5H51.031z M64.313,73.333l0.635,6.5H51.031v-6.5H64.313z M49.031,71.333H36.504l0.635-6.5h11.892V71.333z M49.031,73.333  v6.5H35.674l0.635-6.5H49.031z M66.958,79.833l-0.635-6.5H79.43l0.8,6.5H66.958z M79.184,71.333H66.127l-0.635-6.5h12.893  L79.184,71.333z M35.13,64.833l-0.635,6.5H20.974l0.865-6.5H35.13z"/><path d="M46.344,36.272H49v2.656c0,0.552,0.447,1,1,1s1-0.448,1-1v-2.656h2.656c0.553,0,1-0.448,1-1s-0.447-1-1-1H51v-2.656  c0-0.552-0.447-1-1-1s-1,0.448-1,1v2.656h-2.656c-0.553,0-1,0.448-1,1S45.791,36.272,46.344,36.272z"/><path d="M49.614,46.295c0.123,0.051,0.255,0.077,0.386,0.077s0.263-0.026,0.386-0.078c0.445-0.186,10.921-4.656,12.847-13.302  c1.176-5.282-1.706-9.045-4.881-10.307c-3.042-1.208-6.188-0.274-8.352,2.372c-2.164-2.646-5.314-3.579-8.353-2.372  c-3.175,1.261-6.056,5.025-4.88,10.307C38.691,41.639,49.169,46.109,49.614,46.295z M42.386,24.545  c0.578-0.23,1.226-0.367,1.901-0.367c1.655,0,3.479,0.825,4.854,3.133c0.361,0.605,1.357,0.605,1.719,0  c1.935-3.249,4.757-3.561,6.754-2.766c2.412,0.958,4.588,3.875,3.666,8.013c-1.505,6.762-9.43,10.847-11.28,11.717  c-1.851-0.868-9.771-4.941-11.278-11.717C37.799,28.419,39.975,25.503,42.386,24.545z"/><text x="0" y="115" fill="#000000" font-size="5px" font-weight="bold" font-family="'Helvetica Neue', Helvetica, Arial-Unicode, Arial, Sans-serif">Created by Made</text><text x="0" y="120" fill="#000000" font-size="5px" font-weight="bold" font-family="'Helvetica Neue', Helvetica, Arial-Unicode, Arial, Sans-serif">from the Noun Project</text></svg>