<svg xmlns="http://www.w3.org/2000/svg" xmlns:xlink="http://www.w3.org/1999/xlink" version="1.1" x="0px" y="0px" viewBox="0 0 100 125" style="enable-background:new 0 0 100 100;" xml:space="preserve"><path d="M19.019,28.885h3.414v3.413c0,0.553,0.448,1,1,1s1-0.447,1-1v-3.413h3.414c0.552,0,1-0.447,1-1s-0.448-1-1-1h-3.414v-3.414  c0-0.553-0.448-1-1-1s-1,0.447-1,1v3.414h-3.414c-0.552,0-1,0.447-1,1S18.467,28.885,19.019,28.885z"/><path d="M35.744,26.333H65.65c0.552,0,1-0.447,1-1s-0.448-1-1-1H35.744c-0.552,0-1,0.447-1,1S35.192,26.333,35.744,26.333z"/><path d="M35.744,31.435h44.69c0.552,0,1-0.447,1-1s-0.448-1-1-1h-44.69c-0.552,0-1,0.447-1,1S35.192,31.435,35.744,31.435z"/><path d="M89.042,17.832h-8.125v-6.83c0-0.553-0.448-1-1-1s-1,0.447-1,1v6.83H21.084v-6.83c0-0.553-0.448-1-1-1s-1,0.447-1,1v6.83  h-8.038c-0.552,0-1,0.447-1,1v18.104c0,0.553,0.448,1,1,1h8.038v5.927h-8.038c-0.552,0-1,0.447-1,1v18.104c0,0.553,0.448,1,1,1  h8.038v5.928h-8.038c-0.552,0-1,0.447-1,1V89c0,0.553,0.448,1,1,1h77.996c0.552,0,1-0.447,1-1V70.896c0-0.553-0.448-1-1-1h-8.125  v-5.928h8.125c0.552,0,1-0.447,1-1V44.863c0-0.553-0.448-1-1-1h-8.125v-5.927h8.125c0.552,0,1-0.447,1-1V18.832  C90.042,18.279,89.595,17.832,89.042,17.832z M88.042,88H12.046V71.896h75.996V88z M78.917,69.896H21.084v-5.928h57.833V69.896z   M88.042,61.968H12.046V45.863h75.996V61.968z M78.917,43.863H21.084v-5.927h57.833V43.863z M88.042,35.937H12.046V19.832h75.996  V35.937z"/><path d="M35.744,52.363H65.65c0.552,0,1-0.447,1-1s-0.448-1-1-1H35.744c-0.552,0-1,0.447-1,1S35.192,52.363,35.744,52.363z"/><path d="M35.744,57.466h44.69c0.552,0,1-0.447,1-1s-0.448-1-1-1h-44.69c-0.552,0-1,0.447-1,1S35.192,57.466,35.744,57.466z"/><path d="M19.238,54.915h5.975l-2.013,2.013c-0.391,0.391-0.391,1.023,0,1.414c0.195,0.195,0.451,0.293,0.707,0.293  s0.512-0.098,0.707-0.293l3.719-3.719c0.093-0.092,0.166-0.203,0.217-0.326c0.101-0.244,0.101-0.52,0-0.764  c-0.051-0.123-0.124-0.233-0.217-0.326l-3.719-3.719c-0.391-0.391-1.023-0.391-1.414,0s-0.391,1.023,0,1.414l2.013,2.013h-5.975  c-0.552,0-1,0.447-1,1S18.686,54.915,19.238,54.915z"/><path d="M35.744,78.396H65.65c0.552,0,1-0.447,1-1s-0.448-1-1-1H35.744c-0.552,0-1,0.447-1,1S35.192,78.396,35.744,78.396z"/><path d="M35.744,83.498h44.69c0.552,0,1-0.447,1-1s-0.448-1-1-1h-44.69c-0.552,0-1,0.447-1,1S35.192,83.498,35.744,83.498z"/><path d="M20.467,84.357c0.256,0,0.512-0.098,0.707-0.293l4.225-4.225v2.847c0,0.553,0.448,1,1,1s1-0.447,1-1v-5.261  c0-0.13-0.027-0.26-0.077-0.382c-0.101-0.245-0.296-0.44-0.541-0.541c-0.122-0.051-0.252-0.077-0.382-0.077h-5.261  c-0.552,0-1,0.447-1,1s0.448,1,1,1h2.847L19.76,82.65c-0.391,0.391-0.391,1.023,0,1.414C19.955,84.26,20.211,84.357,20.467,84.357z"/><text x="0" y="115" fill="#000000" font-size="5px" font-weight="bold" font-family="'Helvetica Neue', Helvetica, Arial-Unicode, Arial, Sans-serif">Created by Made</text><text x="0" y="120" fill="#000000" font-size="5px" font-weight="bold" font-family="'Helvetica Neue', Helvetica, Arial-Unicode, Arial, Sans-serif">from the Noun Project</text></svg>