<svg xmlns="http://www.w3.org/2000/svg" xmlns:xlink="http://www.w3.org/1999/xlink" version="1.1" x="0px" y="0px" viewBox="0 0 100 125" style="enable-background:new 0 0 100 100;" xml:space="preserve"><path d="M28.3564453,82.5693359c0,0.5522461,0.4472656,1,1,1s1-0.4477539,1-1c0-0.6817017,0.092041-1.3043823,0.248291-1.8867188  h11.362793c0.15625,0.5823364,0.248291,1.2050171,0.248291,1.8867188c0,0.5522461,0.4472656,1,1,1s1-0.4477539,1-1  c0-4.6177979-3.0618896-7.2234497-6.1589966-9.3818359c3.0971069-2.1584473,6.1589966-4.7645264,6.1589966-9.3823242  s-3.0618896-7.2234497-6.1589966-9.3818359c3.0971069-2.1583862,6.1589966-4.7640381,6.1589966-9.3818359  c0-0.5522461-0.4472656-1-1-1s-1,0.4477539-1,1c0,0.6817017-0.092041,1.3043823-0.248291,1.8867188h-11.362793  c-0.15625-0.5823364-0.248291-1.2050171-0.248291-1.8867188c0-0.5522461-0.4472656-1-1-1s-1,0.4477539-1,1  c0,4.6177979,3.0618896,7.2234497,6.1589966,9.3818359c-3.0971069,2.1583862-6.1589966,4.7640381-6.1589966,9.3818359  s3.0618896,7.223877,6.1589966,9.3823242C31.418335,75.3458862,28.3564453,77.9515381,28.3564453,82.5693359z   M30.3564453,63.8051758c0-0.6972046,0.0953979-1.333252,0.2584839-1.9267578h11.3424072  c0.1630859,0.5935059,0.2584839,1.2295532,0.2584839,1.9267578c0,0.6973877-0.0953979,1.3335571-0.2585449,1.9272461H30.6149902  C30.4518433,65.1387329,30.3564453,64.5025635,30.3564453,63.8051758z M31.4985352,48.9282227h9.5751953  c-1.1051025,1.6990356-2.8873291,2.9929199-4.7875977,4.2866821C34.3858643,51.9211426,32.6036377,50.6272583,31.4985352,48.9282227  z M36.2861328,55.6317749c1.8856812,1.2838135,3.6566772,2.5668335,4.7635498,4.2466431H31.522583  C32.6294556,58.1986084,34.4004517,56.9155884,36.2861328,55.6317749z M31.522644,67.7324219h9.5269775  c-1.1069336,1.6799316-2.8778687,2.9628296-4.7634888,4.2466431C34.4005127,70.6952515,32.6295776,69.4123535,31.522644,67.7324219z   M36.2861328,74.3959351c1.9002686,1.2937622,3.6824951,2.5876465,4.7875977,4.2866821h-9.5751953  C32.6036377,76.9835815,34.3858643,75.6896973,36.2861328,74.3959351z"/><path d="M27.7226562,89.9458008C27.8271484,89.9819336,27.9365234,90,28.046875,90h16.4785156  c0.1103516,0,0.2197266-0.0180664,0.3242188-0.0541992c5.4279785-1.8606567,9.9411621-5.3776855,13.0714722-9.8632812h25.9998169  c3.3408203,0,6.0585938-2.7172852,6.0585938-6.0576172v-6.9462891c0-7.0048828-3.1650391-13.5209961-8.6845703-17.8774414  c-7.6181641-6.0131836-12.7373047-15.9482422-12.7373047-24.7216797v-8.0288086  c0.6835938-0.1577148,1.3037109-0.5327148,1.7646484-1.0810547c0.6220703-0.7397461,0.8837891-1.7163086,0.7167969-2.6796875  C70.7724609,11.15625,69.3339844,10,67.6933594,10H53.6181641c-1.640625,0-3.0791016,1.15625-3.3457031,2.6904297  c-0.1669922,0.9628906,0.0947266,1.9394531,0.7167969,2.6791992c0.4609375,0.5483398,1.0810547,0.9233398,1.7646484,1.0810547  v8.0288086c0,5.3375244-1.9556274,11.3317261-5.3563232,16.5515137c-1.7698364-1.1578369-2.8984985-3.0042725-3.0635986-5.0466309  c0.7060547-0.1625977,1.34375-0.5527344,1.8154297-1.1235352c0.6337891-0.7675781,0.8886719-1.7758789,0.6992188-2.7661133  c-0.2978516-1.5512695-1.7070312-2.6772461-3.3515625-2.6772461H28.9892578c-0.9960938,0-1.9316406,0.4404297-2.5664062,1.2084961  c-0.6337891,0.7675781-0.8886719,1.7758789-0.6992188,2.7666016c0.2460938,1.2802734,1.2480469,2.2709961,2.515625,2.578125  c-0.1816406,2.3125-1.5966797,4.3803711-3.7832031,5.4785156c-8.9775391,4.5058594-14.5546875,13.534668-14.5546875,23.5620117  C9.9013672,76.2714844,17.0634766,86.2919922,27.7226562,89.9458008z M54.7539062,24.4794922V15.534668c0-0.5522461-0.4472656-1-1-1  h-0.2617188c-0.3759766,0-0.7304688-0.1650391-0.9726562-0.453125c-0.2451172-0.2910156-0.34375-0.6635742-0.2763672-1.0488281  C52.3457031,12.4438477,52.9365234,12,53.6181641,12h14.0751953c0.6816406,0,1.2724609,0.4438477,1.375,1.0322266  c0.0673828,0.3857422-0.03125,0.7583008-0.2763672,1.0493164c-0.2421875,0.2880859-0.5966797,0.453125-0.9726562,0.453125  h-0.2617188c-0.5527344,0-1,0.4477539-1,1v8.9448242c0,9.3535156,5.4248047,19.9194336,13.4990234,26.2919922  c5.0351562,3.9746094,7.9228516,9.918457,7.9228516,16.3071289v6.9462891c0,2.2373047-1.8203125,4.0576172-4.0585938,4.0576172  H59.1791992c2.2293091-3.8953247,3.4916992-8.3710327,3.4916992-13.0712891c0-9.635376-5.1591797-18.3366089-13.5270996-23.0009766  C52.7554932,36.4346313,54.7539062,30.2424316,54.7539062,24.4794922z M25.3525391,43.2363281  c3.0263672-1.519043,4.90625-4.4975586,4.90625-7.7734375v-0.3930664c0-0.5522461-0.4472656-1-1-1h-0.1845703  c-0.6748047,0-1.2705078-0.453125-1.3857422-1.0541992c-0.0791016-0.4086914,0.0195312-0.8046875,0.2763672-1.1157227  c0.2529297-0.3066406,0.6269531-0.4824219,1.0244141-0.4824219h14.5078125c0.6757812,0,1.2714844,0.453125,1.3867188,1.0541992  c0.0791016,0.4082031-0.0195312,0.8041992-0.2763672,1.1147461c-0.2539062,0.3071289-0.6269531,0.4833984-1.0253906,0.4833984  h-0.2685547c-0.5527344,0-1,0.4477539-1,1v0.3930664c0,3.2763672,1.8798828,6.2548828,4.90625,7.7734375  c8.296875,4.1650391,13.4511719,12.5083008,13.4511719,21.7749023c0,10.3505859-6.5498047,19.5678711-16.3134766,22.9887695  H28.2148438c-9.7636719-3.4208984-16.3134766-12.6381836-16.3134766-22.9887695  C11.9013672,55.7446289,17.0556641,47.4013672,25.3525391,43.2363281z"/><text x="0" y="115" fill="#000000" font-size="5px" font-weight="bold" font-family="'Helvetica Neue', Helvetica, Arial-Unicode, Arial, Sans-serif">Created by Made</text><text x="0" y="120" fill="#000000" font-size="5px" font-weight="bold" font-family="'Helvetica Neue', Helvetica, Arial-Unicode, Arial, Sans-serif">from the Noun Project</text></svg>