<svg xmlns="http://www.w3.org/2000/svg" xmlns:xlink="http://www.w3.org/1999/xlink" version="1.1" x="0px" y="0px" viewBox="0 0 100 125" enable-background="new 0 0 100 100" xml:space="preserve"><g><g><g><path fill="#000000" d="M50,44.881c-0.828,0-1.5-0.671-1.5-1.5v-8.964c0-0.829,0.672-1.5,1.5-1.5s1.5,0.671,1.5,1.5v8.964     C51.5,44.209,50.828,44.881,50,44.881z"/></g><g><path fill="#000000" d="M54.481,40.399h-8.963c-0.828,0-1.5-0.671-1.5-1.5s0.672-1.5,1.5-1.5h8.963c0.828,0,1.5,0.671,1.5,1.5     S55.31,40.399,54.481,40.399z"/></g></g><g><path fill="#000000" d="M63.143,59.22H36.857c-0.828,0-1.5-0.671-1.5-1.5s0.672-1.5,1.5-1.5h26.285c0.828,0,1.5,0.671,1.5,1.5    S63.971,59.22,63.143,59.22z"/></g><g><path fill="#000000" d="M63.143,66.887H36.857c-0.828,0-1.5-0.671-1.5-1.5s0.672-1.5,1.5-1.5h26.285c0.828,0,1.5,0.671,1.5,1.5    S63.971,66.887,63.143,66.887z"/></g><g><path fill="#000000" d="M63.143,74.553H36.857c-0.828,0-1.5-0.671-1.5-1.5s0.672-1.5,1.5-1.5h26.285c0.828,0,1.5,0.671,1.5,1.5    S63.971,74.553,63.143,74.553z"/></g><g><path fill="#000000" d="M66.342,24.172H33.658c-0.511,0-0.987-0.26-1.263-0.69s-0.313-0.971-0.101-1.436l5.027-10.952    c0.244-0.533,0.777-0.874,1.363-0.874h22.629c0.586,0,1.119,0.341,1.363,0.874l5.027,10.952c0.213,0.465,0.175,1.005-0.101,1.436    S66.853,24.172,66.342,24.172z M35.997,21.172h28.006l-3.65-7.952H39.647L35.997,21.172z"/></g><g><path fill="#000000" d="M54.654,12.645c-0.828,0-1.5-0.671-1.5-1.5c0-1.924-1.415-3.49-3.154-3.49s-3.154,1.566-3.154,3.49    c0,0.829-0.672,1.5-1.5,1.5s-1.5-0.671-1.5-1.5c0-3.579,2.761-6.49,6.154-6.49s6.154,2.912,6.154,6.49    C56.154,11.973,55.482,12.645,54.654,12.645z"/></g><g><path fill="#000000" d="M74.096,84.41H25.904c-0.828,0-1.5-0.671-1.5-1.5V18.291c0-0.829,0.672-1.5,1.5-1.5h9.765    c0.828,0,1.5,0.671,1.5,1.5s-0.672,1.5-1.5,1.5h-8.265V81.41h45.191V19.791h-8.265c-0.828,0-1.5-0.671-1.5-1.5s0.672-1.5,1.5-1.5    h9.765c0.828,0,1.5,0.671,1.5,1.5V82.91C75.596,83.739,74.924,84.41,74.096,84.41z"/></g><g><path fill="#000000" d="M76.399,94.268H23.601c-3.72,0-6.862-2.906-6.862-6.345V18.784c0-3.455,3.143-6.374,6.862-6.374H37.68    c0.828,0,1.5,0.671,1.5,1.5s-0.672,1.5-1.5,1.5H23.601c-1.827,0-3.862,1.385-3.862,3.374v69.139c0,2.001,1.997,3.345,3.862,3.345    h52.799c1.865,0,3.862-1.344,3.862-3.345V18.784c0-1.988-2.035-3.374-3.862-3.374H62.32c-0.828,0-1.5-0.671-1.5-1.5    s0.672-1.5,1.5-1.5h14.079c3.72,0,6.862,2.919,6.862,6.374v69.139C83.262,91.362,80.119,94.268,76.399,94.268z"/></g><g><path fill="#000000" d="M58.355,48.754H41.645c-0.828,0-1.5-0.671-1.5-1.5V30.543c0-0.829,0.672-1.5,1.5-1.5h16.711    c0.828,0,1.5,0.671,1.5,1.5v16.711C59.855,48.083,59.184,48.754,58.355,48.754z M43.145,45.754h13.711V32.043H43.145V45.754z"/></g></g><text x="0" y="115" fill="#000000" font-size="5px" font-weight="bold" font-family="'Helvetica Neue', Helvetica, Arial-Unicode, Arial, Sans-serif">Created by Linseed Studio</text><text x="0" y="120" fill="#000000" font-size="5px" font-weight="bold" font-family="'Helvetica Neue', Helvetica, Arial-Unicode, Arial, Sans-serif">from the Noun Project</text></svg>