<?xml version="1.0" encoding="UTF-8"?>
<svg width="68px" height="91px" viewBox="0 0 68 91" version="1.1" xmlns="http://www.w3.org/2000/svg" xmlns:xlink="http://www.w3.org/1999/xlink">
    <title>registration</title>
    <g id="Page-1" stroke="none" stroke-width="1" fill="none" fill-rule="evenodd">
        <g id="registration" fill="#3682EF" fill-rule="nonzero">
            <g id="Path" transform="translate(28.000000, 28.000000)">
                <path d="M6,12.881 C5.172,12.881 4.5,12.21 4.5,11.381 L4.5,2.417 C4.5,1.588 5.172,0.917 6,0.917 C6.828,0.917 7.5,1.588 7.5,2.417 L7.5,11.381 C7.5,12.209 6.828,12.881 6,12.881 Z"></path>
                <path d="M10.481,8.399 L1.518,8.399 C0.69,8.399 0.018,7.728 0.018,6.899 C0.018,6.07 0.69,5.399 1.518,5.399 L10.481,5.399 C11.309,5.399 11.981,6.07 11.981,6.899 C11.981,7.728 11.31,8.399 10.481,8.399 Z"></path>
            </g>
            <path d="M47.143,55.22 L20.857,55.22 C20.029,55.22 19.357,54.549 19.357,53.72 C19.357,52.891 20.029,52.22 20.857,52.22 L47.142,52.22 C47.97,52.22 48.642,52.891 48.642,53.72 C48.642,54.549 47.971,55.22 47.143,55.22 Z" id="Path"></path>
            <path d="M47.143,62.887 L20.857,62.887 C20.029,62.887 19.357,62.216 19.357,61.387 C19.357,60.558 20.029,59.887 20.857,59.887 L47.142,59.887 C47.97,59.887 48.642,60.558 48.642,61.387 C48.642,62.216 47.971,62.887 47.143,62.887 Z" id="Path"></path>
            <path d="M47.143,70.553 L20.857,70.553 C20.029,70.553 19.357,69.882 19.357,69.053 C19.357,68.224 20.029,67.553 20.857,67.553 L47.142,67.553 C47.97,67.553 48.642,68.224 48.642,69.053 C48.642,69.882 47.971,70.553 47.143,70.553 Z" id="Path"></path>
            <path d="M50.342,20.172 L17.658,20.172 C17.147,20.172 16.671,19.912 16.395,19.482 C16.119,19.052 16.082,18.511 16.294,18.046 L21.321,7.094 C21.565,6.561 22.098,6.22 22.684,6.22 L45.313,6.22 C45.899,6.22 46.432,6.561 46.676,7.094 L51.703,18.046 C51.916,18.511 51.878,19.051 51.602,19.482 C51.326,19.913 50.853,20.172 50.342,20.172 Z M19.997,17.172 L48.003,17.172 L44.353,9.22 L23.647,9.22 L19.997,17.172 Z" id="Shape"></path>
            <path d="M38.654,8.645 C37.826,8.645 37.154,7.974 37.154,7.145 C37.154,5.221 35.739,3.655 34,3.655 C32.261,3.655 30.846,5.221 30.846,7.145 C30.846,7.974 30.174,8.645 29.346,8.645 C28.518,8.645 27.846,7.974 27.846,7.145 C27.846,3.566 30.607,0.655 34,0.655 C37.393,0.655 40.154,3.567 40.154,7.145 C40.154,7.973 39.482,8.645 38.654,8.645 Z" id="Path"></path>
            <path d="M58.096,80.41 L9.904,80.41 C9.076,80.41 8.404,79.739 8.404,78.91 L8.404,14.291 C8.404,13.462 9.076,12.791 9.904,12.791 L19.669,12.791 C20.497,12.791 21.169,13.462 21.169,14.291 C21.169,15.12 20.497,15.791 19.669,15.791 L11.404,15.791 L11.404,77.41 L56.595,77.41 L56.595,15.791 L48.33,15.791 C47.502,15.791 46.83,15.12 46.83,14.291 C46.83,13.462 47.502,12.791 48.33,12.791 L58.095,12.791 C58.923,12.791 59.5950022,13.462 59.5950022,14.291 L59.5950022,78.91 C59.596,79.739 58.924,80.41 58.096,80.41 Z" id="Path"></path>
            <path d="M60.399,90.268 L7.601,90.268 C3.881,90.268 0.739,87.362 0.739,83.923 L0.739,14.784 C0.739,11.329 3.882,8.41 7.601,8.41 L21.68,8.41 C22.508,8.41 23.18,9.081 23.18,9.91 C23.18,10.739 22.508,11.41 21.68,11.41 L7.601,11.41 C5.774,11.41 3.739,12.795 3.739,14.784 L3.739,83.923 C3.739,85.924 5.736,87.268 7.601,87.268 L60.4,87.268 C62.265,87.268 64.262,85.924 64.262,83.923 L64.262,14.784 C64.262,12.796 62.227,11.41 60.4,11.41 L46.32,11.41 C45.492,11.41 44.82,10.739 44.82,9.91 C44.82,9.081 45.492,8.41 46.32,8.41 L60.399,8.41 C64.119,8.41 67.2610004,11.329 67.2610004,14.784 L67.2610004,83.923 C67.262,87.362 64.119,90.268 60.399,90.268 Z" id="Path"></path>
            <path d="M42.355,44.754 L25.645,44.754 C24.817,44.754 24.145,44.083 24.145,43.254 L24.145,26.543 C24.145,25.714 24.817,25.043 25.645,25.043 L42.356,25.043 C43.184,25.043 43.856,25.714 43.856,26.543 L43.856,43.254 C43.855,44.083 43.184,44.754 42.355,44.754 Z M27.145,41.754 L40.856,41.754 L40.856,28.043 L27.145,28.043 L27.145,41.754 Z" id="Shape"></path>
        </g>
    </g>
</svg>