<?xml version="1.0" encoding="UTF-8"?>
<svg width="82px" height="82px" viewBox="0 0 82 82" version="1.1" xmlns="http://www.w3.org/2000/svg" xmlns:xlink="http://www.w3.org/1999/xlink">
    <title>general</title>
    <g id="Page-1" stroke="none" stroke-width="1" fill="none" fill-rule="evenodd">
        <g id="general" transform="translate(0.000000, 1.000000)" fill="#3682EF" fill-rule="nonzero" stroke="#3E8DF1">
            <path d="M23.9345703,47.6279297 L33.2597656,47.6279297 L33.2597656,56.953125 C33.2597656,57.5053711 33.7075195,57.953125 34.2597656,57.953125 L47.7402344,57.953125 C48.2924805,57.953125 48.7402344,57.5053711 48.7402344,56.953125 L48.7402344,47.6279297 L58.0654297,47.6279297 C58.6176758,47.6279297 59.0654297,47.1801758 59.0654297,46.6279297 L59.0654297,33.1474609 C59.0654297,32.5952148 58.6176758,32.1474609 58.0654297,32.1474609 L48.7402344,32.1474609 L48.7402344,22.8217773 C48.7402344,22.2695312 48.2924805,21.8217773 47.7402344,21.8217773 L34.2597656,21.8217773 C33.7075195,21.8217773 33.2597656,22.2695312 33.2597656,22.8217773 L33.2597656,32.1474609 L23.9345703,32.1474609 C23.3823242,32.1474609 22.9345703,32.5952148 22.9345703,33.1474609 L22.9345703,46.6279297 C22.9345703,47.1801758 23.3823242,47.6279297 23.9345703,47.6279297 Z M24.9345703,34.1474609 L34.2597656,34.1474609 C34.8120117,34.1474609 35.2597656,33.699707 35.2597656,33.1474609 L35.2597656,23.8217773 L46.7402344,23.8217773 L46.7402344,33.1474609 C46.7402344,33.699707 47.1879883,34.1474609 47.7402344,34.1474609 L57.0654297,34.1474609 L57.0654297,45.6279297 L47.7402344,45.6279297 C47.1879883,45.6279297 46.7402344,46.0756836 46.7402344,46.6279297 L46.7402344,55.953125 L35.2597656,55.953125 L35.2597656,46.6279297 C35.2597656,46.0756836 34.8120117,45.6279297 34.2597656,45.6279297 L24.9345703,45.6279297 L24.9345703,34.1474609 Z" id="Shape"></path>
            <path d="M79.940918,11.534668 C76.5175171,11.7890015 73.0130005,12.0054932 69.5166016,12.1842652 L69.5166016,0.9956055 C69.5166016,0.4433594 69.0688477,-0.0043945 68.5166016,-0.0043945 L13.4848633,-0.0043945 C12.9326172,-0.0043945 12.4848633,0.4433594 12.4848633,0.9956055 L12.4848633,11.741394 C9.0352783,11.5217285 5.5363159,11.267517 2.0678711,10.9785156 C1.5161133,10.9301758 1.0336914,11.3417968 0.9882813,11.8920898 C0.9423829,12.4423828 1.3515625,12.9257812 1.9018555,12.9716796 C5.4256592,13.2651366 8.9814453,13.5239257 12.4848633,13.7459716 L12.4848633,79.1123046 C12.4848633,79.4248046 12.6308594,79.7192382 12.8793945,79.908203 C13.1284179,80.0976561 13.4516601,80.1601561 13.7519531,80.0761718 L41.0004883,72.5253906 L68.2495117,80.0761718 C68.3374023,80.1005859 68.4272461,80.1127589 68.5166015,80.1127589 C68.7329101,80.1127589 68.9458007,80.0419921 69.1220703,79.908203 C69.3706055,79.7192382 69.5166015,79.4248046 69.5166015,79.1123046 L69.5166015,14.1868896 C73.062622,14.0067138 76.6173095,13.7869873 80.0893554,13.5288085 C80.6401366,13.4882812 81.0532226,13.0083007 81.012207,12.4575194 C80.9711914,11.9067381 80.4926758,11.4936523 79.940918,11.534668 Z M67.5166016,77.7973633 L41.2675782,70.5239258 C41.0927735,70.4760742 40.9082032,70.4760742 40.7333985,70.5239258 L14.4848633,77.7973633 L14.4848633,1.9956055 L67.5166016,1.9956055 L67.5166016,77.7973633 Z" id="Shape"></path>
        </g>
    </g>
</svg>