<?xml version="1.0" encoding="UTF-8"?>
<svg width="77px" height="32px" viewBox="0 0 77 32" version="1.1" xmlns="http://www.w3.org/2000/svg" xmlns:xlink="http://www.w3.org/1999/xlink">
    <title>Group 15</title>
    <g id="Page-1" stroke="none" stroke-width="1" fill="none" fill-rule="evenodd">
        <g id="Desktop-HD" transform="translate(-97.000000, -21.000000)" fill="#FFFFFF" fill-rule="nonzero">
            <g id="Group-15" transform="translate(97.000000, 21.000000)">
                <path d="M26.2215909,2.78835227 C26.5880682,2.78835227 26.9023438,2.66583807 27.1644176,2.42080966 C27.4264915,2.17578125 27.5575284,1.88068182 27.5575284,1.53551136 C27.5575284,1.18607955 27.4264915,0.888849432 27.1644176,0.643821023 C26.9023438,0.398792614 26.5880682,0.276278409 26.2215909,0.276278409 C25.8551136,0.276278409 25.5397727,0.398792614 25.2755682,0.643821023 C25.0113636,0.888849432 24.8792614,1.18607955 24.8792614,1.53551136 C24.8792614,1.88068182 25.0102983,2.17578125 25.2723722,2.42080966 C25.534446,2.66583807 25.8508523,2.78835227 26.2215909,2.78835227 Z M27.3721591,14 L27.3721591,4.18181818 L25.0582386,4.18181818 L25.0582386,14 L27.3721591,14 Z M32.0639205,14 L32.0639205,8.24715909 C32.0639205,7.77414773 32.1523438,7.37144886 32.3291903,7.0390625 C32.5060369,6.70667614 32.7510653,6.45205966 33.0642756,6.27521307 C33.3774858,6.09836648 33.7365057,6.00994318 34.1413352,6.00994318 C34.7379261,6.00994318 35.2056108,6.1953125 35.5443892,6.56605114 C35.8831676,6.93678977 36.0525568,7.45028409 36.0525568,8.10653409 L36.0525568,8.10653409 L36.0525568,14 L38.3664773,14 L38.3664773,7.74857955 C38.3707386,6.96448864 38.2333097,6.29758523 37.9541903,5.74786932 C37.675071,5.19815341 37.2830256,4.77840909 36.778054,4.48863636 C36.2730824,4.19886364 35.6818182,4.05397727 35.0042614,4.05397727 C34.2713068,4.05397727 33.6566051,4.21590909 33.1601563,4.53977273 C32.6637074,4.86363636 32.3025568,5.30042614 32.0767045,5.85014205 L32.0767045,5.85014205 L31.9616477,5.85014205 L31.9616477,4.18181818 L29.75,4.18181818 L29.75,14 L32.0639205,14 Z M43.665483,14 L43.665,5.972 L45.6981534,5.97159091 L45.6981534,4.18181818 L43.665,4.182 L43.665483,3.40838068 C43.665483,3.07964692 43.730447,2.8158772 43.8603751,2.61707154 L43.9307528,2.52308239 C44.1075994,2.31640625 44.4112216,2.21306818 44.8416193,2.21306818 C45.024858,2.21306818 45.1910511,2.2290483 45.3401989,2.26100852 C45.4893466,2.29296875 45.6129261,2.32386364 45.7109375,2.35369318 L45.7109375,2.35369318 L46.1711648,0.563920455 C46.022017,0.512784091 45.7919034,0.455255682 45.4808239,0.391335227 C45.1697443,0.327414773 44.8139205,0.295454545 44.4133523,0.295454545 C43.8465909,0.295454545 43.3309659,0.404119318 42.8664773,0.621448864 C42.4019886,0.838778409 42.0323153,1.16690341 41.7574574,1.60582386 C41.4825994,2.04474432 41.3451705,2.59446023 41.3451705,3.25497159 L41.3451705,3.25497159 L41.345,4.182 L39.8941761,4.18181818 L39.8941761,5.97159091 L41.345,5.972 L41.3451705,14 L43.665483,14 Z M51.7961648,14.1917614 C52.7549716,14.1917614 53.5859375,13.9808239 54.2890625,13.5589489 C54.9921875,13.1370739 55.5365767,12.546875 55.9222301,11.7883523 C56.3078835,11.0298295 56.5007102,10.1434659 56.5007102,9.12926136 C56.5007102,8.11505682 56.3078835,7.2265625 55.9222301,6.46377841 C55.5365767,5.70099432 54.9921875,5.10866477 54.2890625,4.68678977 C53.5859375,4.26491477 52.7549716,4.05397727 51.7961648,4.05397727 C50.837358,4.05397727 50.006392,4.26491477 49.303267,4.68678977 C48.600142,5.10866477 48.0557528,5.70099432 47.6700994,6.46377841 C47.284446,7.2265625 47.0916193,8.11505682 47.0916193,9.12926136 C47.0916193,10.1434659 47.284446,11.0298295 47.6700994,11.7883523 C48.0557528,12.546875 48.600142,13.1370739 49.303267,13.5589489 C50.006392,13.9808239 50.837358,14.1917614 51.7961648,14.1917614 Z M51.8089489,12.3380682 C51.2762784,12.3380682 50.8341619,12.1942472 50.4825994,11.9066051 C50.1310369,11.6189631 49.8689631,11.2322443 49.6963778,10.7464489 C49.5237926,10.2606534 49.4375,9.71946023 49.4375,9.12286932 C49.4375,8.52201705 49.5237926,7.97762784 49.6963778,7.4897017 C49.8689631,7.00177557 50.1310369,6.61292614 50.4825994,6.32315341 C50.8341619,6.03338068 51.2762784,5.88849432 51.8089489,5.88849432 C52.3288352,5.88849432 52.7634943,6.03338068 53.1129261,6.32315341 C53.462358,6.61292614 53.7233665,7.00177557 53.8959517,7.4897017 C54.0685369,7.97762784 54.1548295,8.52201705 54.1548295,9.12286932 C54.1548295,9.71946023 54.0685369,10.2606534 53.8959517,10.7464489 C53.7233665,11.2322443 53.462358,11.6189631 53.1129261,11.9066051 C52.7634943,12.1942472 52.3288352,12.3380682 51.8089489,12.3380682 Z M64.4076705,9.5 L64.4076705,7.59517045 L58.5142045,7.59517045 L58.5142045,9.5 L64.4076705,9.5 Z M70.4865057,14.1725852 C71.0490057,14.1725852 71.515625,14.0788352 71.8863636,13.8913352 C72.2571023,13.7038352 72.5553977,13.4769176 72.78125,13.2105824 C73.0071023,12.9442472 73.1796875,12.6917614 73.2990057,12.453125 L73.2990057,12.453125 L73.4396307,12.453125 L73.4396307,14 L75.7151989,14 L75.7151989,0.909090909 L73.3948864,0.909090909 L73.3948864,5.80539773 L73.2990057,5.80539773 C73.1796875,5.56676136 73.0113636,5.31214489 72.7940341,5.0415483 C72.5767045,4.7709517 72.2826705,4.53870739 71.9119318,4.34481534 C71.5411932,4.1509233 71.0681818,4.05397727 70.4928977,4.05397727 C69.7386364,4.05397727 69.0546875,4.24680398 68.4410511,4.63245739 C67.8274148,5.0181108 67.340554,5.58700284 66.9804688,6.33913352 C66.6203835,7.0912642 66.4403409,8.01278409 66.4403409,9.10369318 C66.4403409,10.1818182 66.6171875,11.0980114 66.9708807,11.8522727 C67.3245739,12.6065341 67.806108,13.1818182 68.415483,13.578125 C69.024858,13.9744318 69.7151989,14.1725852 70.4865057,14.1725852 Z M71.1321023,12.2741477 C70.625,12.2741477 70.1977983,12.1367188 69.8504972,11.8618608 C69.503196,11.5870028 69.2411222,11.2098722 69.0642756,10.7304688 C68.887429,10.2510653 68.7990057,9.70454545 68.7990057,9.09090909 C68.7990057,8.48153409 68.8863636,7.94034091 69.0610795,7.46732955 C69.2357955,6.99431818 69.4957386,6.62357955 69.8409091,6.35511364 C70.1860795,6.08664773 70.6164773,5.95241477 71.1321023,5.95241477 C71.6306818,5.95241477 72.0514915,6.08238636 72.3945313,6.34232955 C72.737571,6.60227273 72.9975142,6.96661932 73.1743608,7.43536932 C73.3512074,7.90411932 73.4396307,8.45596591 73.4396307,9.09090909 C73.4396307,9.72585227 73.350142,10.2819602 73.1711648,10.759233 C72.9921875,11.2365057 72.7301136,11.6083097 72.3849432,11.8746449 C72.0397727,12.1409801 71.6221591,12.2741477 71.1321023,12.2741477 Z" id="info-d"></path>
                <path d="M4.29048295,31.1917614 C5.10866477,31.1917614 5.83309659,31.0596591 6.46377841,30.7954545 C7.09446023,30.53125 7.58771307,30.1637074 7.94353693,29.6928267 C8.2993608,29.221946 8.47940341,28.6775568 8.48366477,28.0596591 C8.47940341,27.3565341 8.25035511,26.787642 7.79651989,26.352983 C7.34268466,25.9183239 6.65127841,25.6008523 5.72230114,25.4005682 L5.72230114,25.4005682 L4.04758523,25.0426136 C3.54900568,24.9275568 3.19211648,24.7805398 2.97691761,24.6015625 C2.76171875,24.4225852 2.65625,24.1903409 2.66051136,23.9048295 C2.65625,23.5724432 2.81711648,23.3018466 3.1431108,23.0930398 C3.46910511,22.884233 3.87286932,22.7798295 4.35440341,22.7798295 C4.71235795,22.7798295 5.01491477,22.837358 5.26207386,22.9524148 C5.50923295,23.0674716 5.70632102,23.21875 5.85333807,23.40625 C6.00035511,23.59375 6.10369318,23.7940341 6.16335227,24.0071023 L6.16335227,24.0071023 L8.27272727,23.7769886 C8.11505682,22.9417614 7.70490057,22.2791193 7.04225852,21.7890625 C6.37961648,21.2990057 5.47301136,21.0539773 4.32244318,21.0539773 C3.53835227,21.0539773 2.84694602,21.1764915 2.24822443,21.4215199 C1.64950284,21.6665483 1.18288352,22.0117188 0.848366477,22.4570313 C0.513849432,22.9023438 0.348721591,23.4275568 0.352982955,24.0326705 C0.348721591,24.7485795 0.572443182,25.3398438 1.02414773,25.8064631 C1.47585227,26.2730824 2.17258523,26.6044034 3.11434659,26.8004261 L3.11434659,26.8004261 L4.7890625,27.1519886 C5.24076705,27.25 5.57421875,27.390625 5.78941761,27.5738636 C6.00461648,27.7571023 6.11221591,27.9893466 6.11221591,28.2705966 C6.11221591,28.602983 5.94495739,28.8821023 5.61044034,29.1079545 C5.2759233,29.3338068 4.83380682,29.446733 4.28409091,29.446733 C3.75142045,29.446733 3.31889205,29.3338068 2.98650568,29.1079545 C2.65411932,28.8821023 2.43678977,28.5475852 2.33451705,28.1044034 L2.33451705,28.1044034 L0.078125,28.321733 C0.21875,29.225142 0.655539773,29.9293324 1.38849432,30.434304 C2.12144886,30.9392756 3.08877841,31.1917614 4.29048295,31.1917614 Z M14.6775568,31.1917614 C15.6363636,31.1917614 16.4673295,30.9808239 17.1704545,30.5589489 C17.8735795,30.1370739 18.4179688,29.546875 18.8036222,28.7883523 C19.1892756,28.0298295 19.3821023,27.1434659 19.3821023,26.1292614 C19.3821023,25.1150568 19.1892756,24.2265625 18.8036222,23.4637784 C18.4179688,22.7009943 17.8735795,22.1086648 17.1704545,21.6867898 C16.4673295,21.2649148 15.6363636,21.0539773 14.6775568,21.0539773 C13.71875,21.0539773 12.8877841,21.2649148 12.1846591,21.6867898 C11.4815341,22.1086648 10.9371449,22.7009943 10.5514915,23.4637784 C10.1658381,24.2265625 9.97301136,25.1150568 9.97301136,26.1292614 C9.97301136,27.1434659 10.1658381,28.0298295 10.5514915,28.7883523 C10.9371449,29.546875 11.4815341,30.1370739 12.1846591,30.5589489 C12.8877841,30.9808239 13.71875,31.1917614 14.6775568,31.1917614 Z M14.6903409,29.3380682 C14.1576705,29.3380682 13.715554,29.1942472 13.3639915,28.9066051 C13.012429,28.6189631 12.7503551,28.2322443 12.5777699,27.7464489 C12.4051847,27.2606534 12.318892,26.7194602 12.318892,26.1228693 C12.318892,25.522017 12.4051847,24.9776278 12.5777699,24.4897017 C12.7503551,24.0017756 13.012429,23.6129261 13.3639915,23.3231534 C13.715554,23.0333807 14.1576705,22.8884943 14.6903409,22.8884943 C15.2102273,22.8884943 15.6448864,23.0333807 15.9943182,23.3231534 C16.34375,23.6129261 16.6047585,24.0017756 16.7773438,24.4897017 C16.949929,24.9776278 17.0362216,25.522017 17.0362216,26.1228693 C17.0362216,26.7194602 16.949929,27.2606534 16.7773438,27.7464489 C16.6047585,28.2322443 16.34375,28.6189631 15.9943182,28.9066051 C15.6448864,29.1942472 15.2102273,29.3380682 14.6903409,29.3380682 Z M24.2784091,31 L24.278,22.972 L26.3110795,22.9715909 L26.3110795,21.1818182 L24.278,21.182 L24.2784091,20.4083807 C24.2784091,20.0796469 24.3433731,19.8158772 24.4733013,19.6170715 L24.543679,19.5230824 C24.7205256,19.3164063 25.0241477,19.2130682 25.4545455,19.2130682 C25.6377841,19.2130682 25.8039773,19.2290483 25.953125,19.2610085 C26.1022727,19.2929688 26.2258523,19.3238636 26.3238636,19.3536932 L26.3238636,19.3536932 L26.7840909,17.5639205 C26.6349432,17.5127841 26.4048295,17.4552557 26.09375,17.3913352 C25.7826705,17.3274148 25.4268466,17.2954545 25.0262784,17.2954545 C24.459517,17.2954545 23.943892,17.4041193 23.4794034,17.6214489 C23.0149148,17.8387784 22.6452415,18.1669034 22.3703835,18.6058239 C22.0955256,19.0447443 21.9580966,19.5944602 21.9580966,20.2549716 L21.9580966,20.2549716 L21.958,21.182 L20.5071023,21.1818182 L20.5071023,22.9715909 L21.958,22.972 L21.9580966,31 L24.2784091,31 Z M31.6017364,31.1350809 L31.8465909,31.134233 C32.1747159,31.1257102 32.4527699,31.0958807 32.6807528,31.0447443 C32.9087358,30.993608 33.084517,30.946733 33.2080966,30.9041193 L33.2080966,30.9041193 L32.8181818,29.0951705 C32.7542614,29.1122159 32.6615767,29.131392 32.5401278,29.1526989 C32.418679,29.1740057 32.2855114,29.1846591 32.140625,29.1846591 C31.9488636,29.1846591 31.7741477,29.1548295 31.6164773,29.0951705 C31.4588068,29.0355114 31.3320313,28.9236506 31.2361506,28.7595881 C31.1402699,28.5955256 31.0923295,28.3579545 31.0923295,28.046875 L31.0923295,28.046875 L31.092,22.972 L33.0291193,22.9715909 L33.0291193,21.1818182 L31.092,21.182 L31.0923295,18.8295455 L28.7784091,18.8295455 L28.778,21.182 L27.3849432,21.1818182 L27.3849432,22.9715909 L28.778,22.972 L28.7784091,28.4303977 C28.7746804,28.9673295 28.8761708,29.4259588 29.0828802,29.8062855 L29.1779119,29.9644886 C29.4485085,30.3735795 29.8160511,30.675071 30.2805398,30.8689631 C30.7450284,31.0628551 31.2670455,31.1512784 31.8465909,31.134233 L31.6017364,31.1350809 Z M39.4083807,31 L41.2492898,24.3650568 L41.3835227,24.3650568 L43.2244318,31 L45.634233,31 L48.4147727,21.1818182 L46.0497159,21.1818182 L44.3494318,28.046875 L44.2535511,28.046875 L42.4893466,21.1818182 L40.15625,21.1818182 L38.3920455,28.0852273 L38.3025568,28.0852273 L36.5767045,21.1818182 L34.2180398,21.1818182 L36.9921875,31 L39.4083807,31 Z M52.8636364,31.1981534 C53.375,31.1981534 53.8213778,31.1267756 54.2027699,30.9840199 C54.5841619,30.8412642 54.9016335,30.6516335 55.1551847,30.4151278 C55.4087358,30.1786222 55.6058239,29.9240057 55.7464489,29.6512784 L55.7464489,29.6512784 L55.8231534,29.6512784 L55.8231534,31 L58.0475852,31 L58.0475852,24.4289773 C58.0475852,23.7769886 57.9293324,23.2336648 57.6928267,22.7990057 C57.456321,22.3643466 57.1441761,22.0202415 56.756392,21.7666903 C56.368608,21.5131392 55.9403409,21.3309659 55.4715909,21.2201705 C55.0028409,21.109375 54.5319602,21.0539773 54.0589489,21.0539773 C53.3728693,21.0539773 52.7464489,21.1551847 52.1796875,21.3575994 C51.6129261,21.5600142 51.1335227,21.862571 50.7414773,22.2652699 C50.3494318,22.6679688 50.0681818,23.1676136 49.8977273,23.7642045 L49.8977273,23.7642045 L52.0582386,24.0710227 C52.1732955,23.734375 52.3959517,23.4424716 52.7262074,23.1953125 C53.0564631,22.9481534 53.5049716,22.8245739 54.071733,22.8245739 C54.6086648,22.8245739 55.0198864,22.9566761 55.3053977,23.2208807 C55.5909091,23.4850852 55.7336648,23.8579545 55.7336648,24.3394886 L55.7336648,24.3394886 L55.7336648,24.3778409 C55.7336648,24.5994318 55.6516335,24.762429 55.487571,24.8668324 C55.3235085,24.9712358 55.0625,25.0479403 54.7045455,25.096946 C54.3465909,25.1459517 53.8799716,25.2002841 53.3046875,25.2599432 C52.8274148,25.3110795 52.3661222,25.3931108 51.9208097,25.5060369 C51.4754972,25.6189631 51.0759943,25.7840909 50.7223011,26.0014205 C50.368608,26.21875 50.0894886,26.5085227 49.8849432,26.8707386 C49.6803977,27.2329545 49.578125,27.6910511 49.578125,28.2450284 C49.578125,28.8884943 49.721946,29.4296875 50.0095881,29.868608 C50.2972301,30.3075284 50.6892756,30.6388494 51.1857244,30.862571 C51.6821733,31.0862926 52.2414773,31.1981534 52.8636364,31.1981534 Z M53.4644886,29.4978693 C52.9829545,29.4978693 52.5866477,29.3892045 52.2755682,29.171875 C51.9644886,28.9545455 51.8089489,28.6328125 51.8089489,28.2066761 C51.8089489,27.9083807 51.8877841,27.6644176 52.0454545,27.4747869 C52.203125,27.2851563 52.4183239,27.1370739 52.6910511,27.0305398 C52.9637784,26.9240057 53.2727273,26.8473011 53.6178977,26.8004261 C53.7713068,26.7791193 53.9524148,26.7535511 54.1612216,26.7237216 C54.3700284,26.693892 54.5809659,26.6598011 54.7940341,26.6214489 C55.0071023,26.5830966 55.199929,26.5383523 55.3725142,26.4872159 C55.5450994,26.4360795 55.6676136,26.3806818 55.7400568,26.3210227 L55.7400568,26.3210227 L55.7400568,27.477983 C55.7400568,27.8401989 55.6473722,28.1747159 55.4620028,28.4815341 C55.2766335,28.7883523 55.0134943,29.034446 54.6725852,29.2198153 C54.3316761,29.4051847 53.9289773,29.4978693 53.4644886,29.4978693 Z M62.6946023,31 L62.6946023,25.227983 C62.6946023,24.8103693 62.790483,24.4417614 62.9822443,24.1221591 C63.1740057,23.8025568 63.4371449,23.5522017 63.7716619,23.3710938 C64.106179,23.1899858 64.484375,23.0994318 64.90625,23.0994318 C65.1022727,23.0994318 65.3057528,23.1132813 65.5166903,23.1409801 C65.7276278,23.168679 65.8821023,23.1995739 65.9801136,23.2336648 L65.9801136,23.2336648 L65.9801136,21.1051136 C65.8735795,21.0838068 65.7404119,21.0678267 65.5806108,21.0571733 C65.4208097,21.0465199 65.2769886,21.0411932 65.1491477,21.0411932 C64.5866477,21.0411932 64.0870028,21.1956676 63.6502131,21.5046165 C63.2134233,21.8135653 62.9055398,22.2514205 62.7265625,22.8181818 L62.7265625,22.8181818 L62.6242898,22.8181818 L62.6242898,21.1818182 L60.3806818,21.1818182 L60.3806818,31 L62.6946023,31 Z M71.8671875,31.1917614 C72.6299716,31.1917614 73.3075284,31.0756392 73.899858,30.8433949 C74.4921875,30.6111506 74.9790483,30.2830256 75.3604403,29.8590199 C75.7418324,29.4350142 76.0007102,28.9375 76.1370739,28.3664773 L76.1370739,28.3664773 L73.9765625,28.1235795 C73.8742898,28.4005682 73.7230114,28.6328125 73.5227273,28.8203125 C73.3224432,29.0078125 73.0859375,29.1495028 72.8132102,29.2453835 C72.540483,29.3412642 72.2357955,29.3892045 71.8991477,29.3892045 C71.3963068,29.3892045 70.9573864,29.2816051 70.5823864,29.0664063 C70.2073864,28.8512074 69.915483,28.5401278 69.7066761,28.1331676 C69.4978693,27.7262074 69.3934659,27.2372159 69.3934659,26.6661932 L69.394,26.724 L76.2329545,26.7237216 L76.2329545,26.0142045 C76.2329545,25.1534091 76.1136364,24.4108665 75.875,23.7865767 C75.6363636,23.1622869 75.309304,22.6477273 74.893821,22.2428977 C74.4783381,21.8380682 74.0010653,21.5387074 73.4620028,21.3448153 C72.9229403,21.1509233 72.3508523,21.0539773 71.7457386,21.0539773 C70.8082386,21.0539773 69.9921875,21.2681108 69.2975852,21.6963778 C68.602983,22.1246449 68.0628551,22.7212358 67.6772017,23.4861506 C67.2915483,24.2510653 67.0987216,25.1384943 67.0987216,26.1484375 C67.0987216,27.1754261 67.290483,28.0671165 67.6740057,28.8235085 C68.0575284,29.5799006 68.606179,30.1637074 69.3199574,30.574929 C70.0337358,30.9861506 70.8828125,31.1917614 71.8671875,31.1917614 Z M69.4036754,25.088157 C69.434156,24.7321555 69.5319602,24.4005682 69.6970881,24.0933949 C69.8952415,23.7247869 70.1732955,23.4264915 70.53125,23.1985085 C70.8892045,22.9705256 71.3046875,22.8565341 71.7776989,22.8565341 C72.2208807,22.8565341 72.6097301,22.9566761 72.9442472,23.1569602 C73.2787642,23.3572443 73.5397727,23.6310369 73.7272727,23.9783381 C73.9147727,24.3256392 74.0106534,24.7208807 74.0149148,25.1640625 L74.0149148,25.1640625 L69.399,25.165 L69.4036754,25.088157 Z" id="software"></path>
            </g>
        </g>
    </g>
</svg>